<svg xmlns="http://www.w3.org/2000/svg" viewBox="0 0 24 24" id="dblp"><path fill="#2E7FCA" d="m11.969 7.81-.616-2.28.616 2.28zM5.754 10.365a.733.733 0 0 1-.333-.441l-.607-2.279-1.916.898a.734.734 0 0 0-.398.853l2.44 9.151a.734.734 0 0 0 1.019.476l6.073-2.833-.67-2.48-5.608-3.345zm5.599-4.835-.151-.558a.737.737 0 0 0-.331-.438L3.386.049a.336.336 0 0 0-.497.374l1.925 7.221 5.519-2.588a.736.736 0 0 1 1.02.474z"></path><path fill="#0A4DA5" d="m5.754 10.365 5.606 3.345-1.187-4.392a.734.734 0 0 1 .398-.856l1.397-.652-.615-2.28a.734.734 0 0 0-1.019-.473l-5.52 2.588.608 2.279a.734.734 0 0 0 .332.441z"></path><path fill="#2E7FCA" d="m12.031 16.19.616 2.28-.616-2.28z"></path><path fill="#FDD700" d="m21.5 14.604-2.44-9.151a.734.734 0 0 0-1.019-.476L11.969 7.81l.67 2.48 5.606 3.345a.733.733 0 0 1 .333.441l.608 2.279 1.917-.899a.733.733 0 0 0 .397-.852z"></path><path fill="#2E7FCA" d="m11.361 13.71.67 2.48zM12.639 10.29l-.67-2.48z"></path><path fill="#45681B" d="m11.569 9.652 1.07.638-.67-2.48-1.397.652a.734.734 0 0 0-.398.856l1.187 4.392-.875-3.237a.733.733 0 0 1 1.083-.821z"></path><path fill="#FDD700" d="m12.647 18.47.151.558c.05.183.168.34.331.438l7.485 4.485a.336.336 0 0 0 .497-.375l-1.925-7.221-5.519 2.588a.735.735 0 0 1-1.02-.473z"></path><path fill="#F9BC00" d="M18.246 13.635 12.64 10.29l1.187 4.392a.734.734 0 0 1-.398.856l-1.397.652.616 2.281a.734.734 0 0 0 1.019.473l5.519-2.588-.608-2.279a.733.733 0 0 0-.332-.442z"></path><path fill="#5A7F19" d="M13.514 13.527a.734.734 0 0 1-1.084.821l-1.07-.638.67 2.48 1.397-.652a.734.734 0 0 0 .398-.856l-1.187-4.392.876 3.237z"></path><path fill="#2B5A20" d="m13.514 13.527-.875-3.237-1.07-.638a.734.734 0 0 0-1.084.821l.875 3.237 1.07.638a.733.733 0 0 0 1.084-.821z"></path></svg>