<?xml version="1.0" standalone="no"?>
<!DOCTYPE svg PUBLIC "-//W3C//DTD SVG 20010904//EN"
 "http://www.w3.org/TR/2001/REC-SVG-20010904/DTD/svg10.dtd">
<svg version="1.0" xmlns="http://www.w3.org/2000/svg"
 width="300.000000pt" height="300.000000pt" viewBox="0 0 300.000000 300.000000"
 preserveAspectRatio="xMidYMid meet">
<metadata>
Created by potrace 1.10, written by Peter Selinger 2001-2011
</metadata>
<g transform="translate(0.000000,300.000000) scale(0.100000,-0.100000)"
fill="#000000" stroke="none">
<path d="M0 1500 l0 -1500 1500 0 1500 0 0 1500 0 1500 -1500 0 -1500 0 0
-1500z m1630 1174 c0 -8 -19 -13 -24 -6 -3 5 1 9 9 9 8 0 15 -2 15 -3z m42
-64 c72 -23 171 -77 163 -89 -2 -5 3 -15 13 -22 15 -13 16 -12 3 4 -29 37 7
14 56 -35 114 -116 168 -250 167 -413 -1 -133 -32 -225 -119 -355 -66 -99 -95
-162 -95 -210 0 -40 -20 -89 -40 -100 -11 -6 -143 -10 -323 -10 -302 0 -304 0
-325 23 -13 13 -25 45 -31 83 -12 79 -31 123 -87 200 -190 267 -172 569 45
784 151 149 372 203 573 140z m84 -1317 c4 -21 24 -83 45 -138 l39 -100 -125
-240 c-69 -132 -141 -279 -162 -327 -20 -48 -38 -86 -39 -85 -1 1 2 40 6 87 5
47 10 168 12 270 l3 185 -29 3 c-16 2 -32 0 -37 -5 -8 -8 2 -305 16 -483 l5
-65 -23 55 c-12 30 -86 179 -164 331 l-142 276 34 84 c19 46 40 108 46 137
l12 52 248 0 248 0 7 -37z m81 -88 c0 -8 -4 -12 -9 -9 -5 3 -6 10 -3 15 9 13
12 11 12 -6z m-619 -390 c-3 -3 -9 2 -12 12 -6 14 -5 15 5 6 7 -7 10 -15 7
-18z"/>
<path d="M1372 2608 c-24 -5 -41 -12 -38 -15 11 -12 -28 -32 -41 -21 -30 25
-201 -105 -262 -200 -34 -54 -67 -127 -52 -118 5 4 7 -3 4 -15 -4 -14 -8 -17
-13 -9 -14 23 -33 -126 -28 -217 4 -64 13 -108 35 -163 26 -68 31 -75 53 -72
24 3 24 3 6 -11 -15 -11 -16 -16 -6 -22 9 -6 11 -4 5 5 -6 9 -4 11 4 6 7 -5
10 -14 7 -22 -3 -7 0 -16 6 -20 7 -5 8 -2 3 6 -6 9 -4 11 4 6 7 -5 10 -14 7
-21 -2 -7 12 -26 33 -43 21 -17 38 -37 38 -46 0 -8 -4 -13 -9 -10 -4 3 -5 -2
-2 -10 3 -9 11 -13 17 -9 6 4 8 0 5 -8 -3 -9 0 -44 7 -80 7 -35 13 -55 14 -44
1 17 3 18 11 5 5 -8 10 -24 10 -35 0 -17 -2 -18 -11 -5 -9 13 -10 13 -6 0 3
-11 15 -14 43 -12 73 5 602 7 597 2 -2 -3 -140 -7 -306 -10 l-302 -6 298 -2
c344 -2 329 -6 342 93 4 32 9 65 12 74 4 14 3 14 -6 1 -9 -13 -11 -13 -11 3 0
9 7 17 15 17 8 0 15 3 16 8 0 4 2 16 3 28 2 20 42 84 52 84 3 0 -3 -12 -14
-27 -26 -38 -34 -53 -29 -53 2 0 16 17 30 39 18 26 22 42 15 49 -7 7 -5 10 7
9 9 -1 24 9 33 23 10 13 12 21 5 17 -6 -4 -14 -3 -18 3 -3 5 -1 11 4 11 6 1
16 2 23 3 6 0 23 28 36 61 19 45 25 78 25 130 0 55 1 62 7 35 5 -25 8 -7 9 63
0 54 -3 96 -8 93 -4 -3 -13 6 -19 19 -7 15 -8 25 -2 25 6 0 10 -8 10 -17 0 -9
2 -14 5 -11 3 3 2 19 -1 36 -5 27 -9 30 -25 22 -12 -7 -20 -6 -25 2 -4 6 -3 8
3 5 6 -4 16 -1 22 7 14 17 -6 69 -22 59 -6 -4 -8 0 -4 10 3 10 2 17 -4 17 -6
0 -8 4 -5 9 6 9 -45 85 -66 97 -7 4 -3 -4 8 -17 21 -23 64 -89 52 -79 -21 18
-78 102 -73 109 2 5 -3 8 -12 7 -10 0 -18 6 -18 14 0 8 -4 15 -10 15 -29 2
-56 18 -51 31 3 8 1 12 -4 9 -5 -3 -18 -1 -29 5 -13 7 -22 7 -26 0 -4 -6 -11
-8 -16 -4 -5 3 -7 9 -4 14 5 7 -34 36 -42 32 -9 -5 -62 22 -57 29 3 5 -4 9
-16 9 -12 0 -19 -4 -16 -8 2 -4 -8 -7 -22 -6 -45 4 -48 6 -17 14 46 12 -141
10 -193 -2z m81 -5 c-7 -2 -21 -2 -30 0 -10 3 -4 5 12 5 17 0 24 -2 18 -5z
m-73 -7 c0 -2 -7 -7 -16 -10 -8 -3 -12 -2 -9 4 6 10 25 14 25 6z m-90 -36 c0
-5 -2 -10 -4 -10 -3 0 -8 5 -11 10 -3 6 -1 10 4 10 6 0 11 -4 11 -10z m-68
-30 c-12 -11 -26 -20 -33 -20 -6 0 -9 -6 -6 -13 3 -9 -3 -13 -17 -13 -14 1
-20 -4 -18 -14 2 -8 0 -12 -4 -7 -4 4 -20 -5 -36 -20 -31 -29 -39 -54 -10 -32
15 13 16 12 3 -4 -8 -9 -16 -15 -19 -12 -7 7 -52 -47 -52 -62 0 -7 -5 -13 -11
-13 -32 0 90 145 165 196 58 39 69 43 38 14z m333 8 c-22 -5 -17 -6 19 -4 34
3 44 1 35 -6 -10 -7 -3 -8 21 -4 21 4 30 3 22 -3 -10 -6 -8 -10 9 -14 13 -4
25 -4 28 -2 2 3 -1 5 -7 5 -7 0 -12 5 -12 11 0 8 5 8 15 -1 8 -7 12 -16 9 -21
-3 -5 -1 -9 5 -9 5 0 11 3 14 8 2 4 2 1 0 -7 -2 -8 2 -11 11 -8 26 10 131 -66
119 -86 -4 -6 0 -8 10 -4 11 4 17 1 17 -8 0 -8 8 -20 18 -27 26 -19 63 -94 56
-112 -4 -12 -2 -15 9 -10 24 9 46 -39 25 -53 -7 -3 -8 -1 -4 5 4 7 2 12 -4 12
-7 0 -10 7 -6 15 3 8 1 15 -5 15 -15 0 -2 -51 17 -65 13 -9 13 -25 4 -105 -6
-52 -13 -105 -17 -119 -4 -16 -2 -22 5 -17 8 5 8 -2 1 -24 -13 -35 -23 -41
-15 -7 3 12 -1 7 -10 -12 -8 -18 -13 -36 -10 -39 4 -3 6 0 6 6 0 7 5 12 11 12
8 0 8 -5 -1 -15 -7 -8 -16 -12 -21 -9 -6 3 -8 -6 -5 -20 3 -14 1 -26 -3 -26
-4 0 -13 -10 -20 -23 -7 -12 -22 -27 -33 -32 -12 -6 -24 -17 -26 -25 -3 -9 2
-7 12 5 8 11 16 15 16 9 0 -14 -35 -46 -42 -39 -3 3 -8 -1 -11 -9 -4 -10 -1
-13 9 -9 11 4 9 -4 -6 -30 -12 -20 -19 -40 -17 -44 3 -5 -1 -19 -9 -33 -9 -16
-13 -19 -14 -9 0 9 3 19 7 23 4 3 8 14 9 24 1 9 5 26 8 37 7 19 7 19 -5 1 -18
-29 -41 -125 -34 -145 6 -19 -12 -19 -127 -7 -15 1 -29 -1 -30 -6 -2 -4 -2
105 0 244 2 177 7 257 15 267 10 12 9 14 -6 8 -12 -5 -16 -3 -11 5 5 7 2 9 -8
5 -12 -4 -15 0 -12 16 2 12 1 16 -2 8 -5 -11 -8 -11 -15 0 -5 9 -7 3 -5 -16
l4 -30 -63 0 c-35 0 -61 3 -58 8 2 4 0 7 -6 7 -7 0 -7 8 -1 26 6 14 10 31 9
37 0 7 -6 -4 -14 -23 -7 -19 -17 -34 -21 -33 -5 1 -9 -116 -9 -260 l0 -262
-88 -2 c-48 -1 -85 2 -82 7 8 13 -6 90 -15 85 -5 -3 -6 5 -4 17 2 13 1 17 -2
10 -4 -9 -13 1 -25 27 -10 23 -23 41 -29 41 -6 0 -8 5 -5 10 4 6 12 8 18 4 7
-3 1 4 -13 16 -14 12 -19 18 -11 14 10 -5 12 -3 7 5 -6 9 -11 9 -24 -1 -10 -8
-13 -9 -9 -1 4 6 0 19 -9 27 -8 9 -11 16 -5 16 6 0 11 4 11 10 0 5 -6 7 -14 4
-9 -3 -17 3 -21 15 -3 12 -11 18 -17 15 -7 -4 -8 -2 -4 5 4 6 2 19 -6 28 -9
12 -9 15 0 9 6 -4 12 -3 12 3 0 5 -9 13 -21 16 -15 5 -18 10 -10 18 13 13 15
31 2 23 -4 -3 -13 7 -20 22 -11 26 -11 26 5 7 16 -20 16 -19 10 5 -3 14 -6 36
-7 50 -1 23 -2 22 -8 -5 -4 -17 -6 12 -6 67 0 53 3 89 7 80 11 -27 10 7 -1 46
-7 23 -7 30 1 26 8 -5 9 -1 5 10 -4 10 -3 15 3 11 6 -3 8 -18 5 -33 -5 -23 -4
-24 4 -6 5 12 8 37 6 57 -3 30 -1 35 16 32 18 -4 27 9 12 18 -5 2 -2 2 6 0 9
-2 11 2 7 13 -4 10 1 25 10 35 9 10 13 22 9 28 -4 7 0 8 10 5 13 -5 13 -9 3
-23 -12 -14 -11 -14 4 -2 10 7 15 18 12 23 -8 12 76 84 94 80 9 -2 11 1 6 9
-4 7 -3 10 3 6 6 -4 15 5 22 20 6 14 15 23 18 19 4 -3 17 1 29 9 15 10 25 11
29 4 4 -5 16 -7 27 -3 11 3 41 10 66 15 l47 8 -55 -4 c-33 -2 -47 0 -35 4 11
5 61 8 110 7 60 0 80 -3 60 -8z m-200 -8 c3 -5 1 -10 -4 -10 -6 0 -11 5 -11
10 0 6 2 10 4 10 3 0 8 -4 11 -10z m-346 -246 c-6 -8 -15 -12 -18 -8 -3 4 0 9
7 11 6 3 9 10 6 15 -4 7 -2 8 5 4 9 -6 9 -11 0 -22z m954 11 c-3 -9 -8 -14
-10 -11 -3 3 -2 9 2 15 9 16 15 13 8 -4z m57 -40 c0 -5 -5 -3 -10 5 -5 8 -10
20 -10 25 0 6 5 3 10 -5 5 -8 10 -19 10 -25z m-1053 -77 c-3 -8 -6 -5 -6 6 -1
11 2 17 5 13 3 -3 4 -12 1 -19z m-2 -60 c-8 -46 -15 -48 -15 -5 0 21 5 37 10
37 6 0 8 -13 5 -32z m1085 2 c0 -11 -2 -20 -4 -20 -2 0 -6 9 -9 20 -3 11 -1
20 4 20 5 0 9 -9 9 -20z m-1083 -75 c0 -8 -4 -12 -9 -9 -5 3 -6 10 -3 15 9 13
12 11 12 -6z m1027 -57 c-2 -18 -8 -36 -13 -41 -8 -8 -5 29 4 61 8 23 12 12 9
-20z m-1037 -15 c-3 -10 -5 -4 -5 12 0 17 2 24 5 18 2 -7 2 -21 0 -30z m633
-37 c3 -16 3 -124 0 -240 l-5 -211 -83 -3 -82 -3 2 243 3 243 40 5 c22 3 58 3
80 0 35 -4 40 -9 45 -34z m448 -3 c-2 -9 -11 -17 -21 -19 -9 -1 -15 2 -11 7 3
5 10 7 15 4 5 -4 9 1 9 9 0 9 3 16 6 16 3 0 4 -7 2 -17z m-1071 -15 c-3 -8 -6
-5 -6 6 -1 11 2 17 5 13 3 -3 4 -12 1 -19z m21 -40 c0 -30 -1 -31 -9 -10 -5
13 -7 28 -3 33 9 15 11 11 12 -23z m1032 -19 c0 -5 -8 -9 -17 -8 -11 0 -13 3
-5 6 6 2 9 10 6 15 -4 7 -2 8 4 4 7 -4 12 -11 12 -17z m-1003 -56 c1 -22 -1
-24 -8 -10 -6 9 -7 22 -4 27 9 14 10 13 12 -17z m974 -10 c-12 -20 -14 -14 -5
12 4 9 9 14 11 11 3 -2 0 -13 -6 -23z m-31 -59 c0 -8 -19 -13 -24 -6 -3 5 1 9
9 9 8 0 15 -2 15 -3z m-854 -46 c3 -4 -1 -5 -10 -4 -8 1 -18 5 -22 8 -3 4 1 5
10 4 8 -1 18 -5 22 -8z m759 -89 c-4 -5 -12 -9 -18 -8 -9 0 -8 2 1 6 6 2 9 10
6 15 -4 7 -2 8 5 4 6 -4 9 -12 6 -17z m-698 -101 c-3 -7 -5 -2 -5 12 0 14 2
19 5 13 2 -7 2 -19 0 -25z m610 10 c-3 -8 -6 -5 -6 6 -1 11 2 17 5 13 3 -3 4
-12 1 -19z m60 -10 c-3 -7 -5 -2 -5 12 0 14 2 19 5 13 2 -7 2 -19 0 -25z
m-626 5 c13 -16 12 -17 -3 -4 -10 7 -18 15 -18 17 0 8 8 3 21 -13z m149 -43
c0 -10 -66 -7 -77 4 -3 3 12 6 35 6 23 0 42 -4 42 -10z m158 3 c-16 -2 -40 -2
-55 0 -16 2 -3 4 27 4 30 0 43 -2 28 -4z m211 3 c-2 -2 -26 -7 -53 -10 -33 -5
-46 -4 -41 3 3 6 27 11 52 11 26 0 44 -2 42 -4z m97 -33 c-3 -4 -6 -1 -6 6 0
7 -4 9 -10 6 -6 -4 -7 1 -3 11 6 15 7 15 15 -1 6 -9 7 -19 4 -22z"/>
<path d="M1380 2506 c-57 -16 -142 -59 -159 -80 -8 -9 -18 -16 -24 -16 -5 0
-2 10 9 23 10 12 4 9 -14 -7 -17 -16 -30 -32 -27 -34 2 -2 -8 -20 -22 -39 -17
-22 -29 -30 -33 -23 -5 8 -9 6 -13 -5 -4 -9 -3 -13 3 -10 15 9 12 -4 -9 -39
-53 -87 -66 -244 -31 -360 13 -40 44 -100 80 -153 59 -86 71 -111 49 -97 -7 4
-7 -2 1 -17 18 -34 24 -38 15 -9 -5 17 -4 22 3 15 15 -15 42 -102 42 -135 l0
-30 63 0 62 0 0 235 0 235 -32 11 c-50 16 -93 72 -93 120 0 76 39 118 110 119
33 0 53 -7 75 -24 27 -21 30 -30 30 -78 0 -29 -4 -63 -8 -75 -8 -22 -6 -23 43
-23 50 0 52 1 45 23 -21 64 -12 148 15 132 5 -3 12 0 16 6 4 8 3 9 -4 5 -7 -4
-12 -3 -12 2 0 15 48 32 89 32 49 0 87 -30 102 -79 10 -33 8 -45 -9 -85 -17
-38 -30 -50 -67 -67 l-45 -20 0 -234 0 -233 63 -4 c60 -3 63 -2 59 19 -8 42
28 131 98 238 84 130 110 204 110 316 0 92 -25 179 -71 248 -17 24 -28 46 -25
48 6 6 66 -86 66 -101 0 -5 3 -7 6 -4 13 14 -70 133 -86 123 -4 -2 -15 4 -25
15 -10 11 -14 20 -10 20 4 0 0 9 -11 21 -22 24 -60 48 -50 30 10 -16 6 -14
-69 21 -59 27 -81 32 -164 34 -59 2 -113 -2 -141 -10z m416 -77 c19 -22 19
-22 -3 -10 -24 12 -39 31 -25 31 5 0 17 -10 28 -21z"/>
<path d="M1300 2501 c-8 -6 -17 -8 -21 -5 -4 2 -10 -3 -13 -11 -5 -13 -1 -13
27 1 17 9 34 18 36 20 9 8 -15 3 -29 -5z"/>
<path d="M1057 2263 c-4 -3 -7 -13 -7 -22 1 -13 3 -13 11 2 11 19 8 33 -4 20z"/>
<path d="M1352 2186 c51 -27 53 -28 35 -13 -14 11 -15 16 -5 20 7 3 -3 6 -22
6 l-35 1 27 -14z"/>
<path d="M1647 2191 c42 -7 73 -25 73 -44 0 -5 -10 -2 -22 9 l-22 19 20 -26
c13 -19 22 -23 27 -15 5 6 7 1 4 -14 -3 -14 -1 -34 3 -45 6 -14 8 -8 8 24 0
61 -39 102 -95 100 l-38 -2 42 -6z"/>
<path d="M1289 2173 c-13 -17 -13 -17 6 -3 11 8 22 16 24 17 2 2 0 3 -6 3 -6
0 -17 -8 -24 -17z"/>
<path d="M1423 2167 c12 -13 24 -22 26 -20 6 4 -30 43 -40 43 -5 0 2 -10 14
-23z"/>
<path d="M1329 2175 c-1 -3 -2 -8 -3 -12 -2 -5 -8 -20 -15 -35 -19 -37 -6 -75
32 -98 17 -11 35 -20 38 -20 9 0 39 76 39 99 0 26 -32 51 -66 51 -22 0 -26 3
-14 10 10 6 11 10 3 10 -7 0 -14 -2 -14 -5z"/>
<path d="M1600 2170 c-8 -5 -10 -10 -5 -10 6 0 17 5 25 10 8 5 11 10 5 10 -5
0 -17 -5 -25 -10z"/>
<path d="M1416 2151 c4 -8 11 -28 15 -45 6 -29 7 -29 8 -5 1 14 -6 34 -15 45
-8 10 -12 13 -8 5z"/>
<path d="M1594 2135 c-14 -22 -15 -32 -5 -63 18 -59 25 -66 52 -52 43 23 59
43 59 75 0 62 -73 90 -106 40z"/>
<path d="M1972 2135 c0 -16 2 -22 5 -12 2 9 2 23 0 30 -3 6 -5 -1 -5 -18z"/>
<path d="M1265 2128 c-4 -14 -5 -35 -2 -45 3 -10 6 -3 7 17 l3 35 6 -35 7 -35
5 37 c3 20 2 35 -2 32 -4 -2 -9 2 -12 8 -2 7 -8 1 -12 -14z"/>
<path d="M1555 2101 c0 -27 3 -45 6 -39 4 7 8 6 11 -2 2 -6 3 8 3 33 0 25 -3
43 -7 41 -3 -2 -8 0 -10 6 -1 5 -3 -12 -3 -39z"/>
<path d="M1452 2105 c0 -16 2 -22 5 -12 2 9 2 23 0 30 -3 6 -5 -1 -5 -18z"/>
<path d="M1542 2100 c0 -14 2 -19 5 -12 2 6 2 18 0 25 -3 6 -5 1 -5 -13z"/>
<path d="M1697 2047 l-17 -32 20 24 c17 20 26 41 18 41 -2 0 -11 -15 -21 -33z"/>
<path d="M1270 2051 c0 -6 4 -13 10 -16 6 -3 7 1 4 9 -7 18 -14 21 -14 7z"/>
<path d="M1297 2050 c10 -11 10 -17 0 -29 -10 -14 -10 -14 4 -3 13 10 19 9 30
-5 12 -15 12 -16 -6 -10 -20 7 -20 7 0 -8 12 -10 29 -14 43 -10 17 4 22 2 16
-6 -4 -8 -3 -9 5 -5 20 13 1 26 -27 20 -15 -3 -22 -2 -16 3 7 5 -2 18 -25 37
-20 17 -30 24 -24 16z"/>
<path d="M1699 2013 c-13 -16 -12 -17 4 -4 9 7 17 15 17 17 0 8 -8 3 -21 -13z"/>
<path d="M1650 2010 c-13 -9 -13 -10 0 -10 13 0 13 -1 0 -10 -8 -5 -10 -10 -5
-10 6 0 17 5 25 10 11 7 11 10 2 10 -7 0 -10 5 -7 10 8 12 4 12 -15 0z"/>
<path d="M1394 1725 c0 -132 2 -185 3 -117 2 68 2 176 0 240 -1 64 -3 9 -3
-123z"/>
<path d="M1090 1800 c6 -11 13 -20 16 -20 2 0 0 9 -6 20 -6 11 -13 20 -16 20
-2 0 0 -9 6 -20z"/>
<path d="M1885 1774 c-9 -15 -12 -23 -6 -20 11 7 35 46 28 46 -3 0 -12 -12
-22 -26z"/>
<path d="M1430 1723 l0 -233 70 0 70 0 0 233 0 232 -70 0 -70 0 0 -232z"/>
<path d="M1698 2579 c42 -16 52 -25 47 -37 -5 -13 -4 -14 6 -5 8 8 18 9 31 2
10 -5 18 -7 18 -4 0 9 -123 65 -140 64 -8 0 9 -9 38 -20z"/>
<path d="M1257 1282 c-4 -17 -4 -39 0 -49 4 -10 2 -14 -4 -10 -7 4 -16 -6 -22
-25 -13 -37 -14 -48 -2 -29 6 9 9 6 9 -12 0 -14 -7 -28 -16 -32 -12 -4 -13 -3
-2 10 7 8 8 15 2 15 -17 0 -23 -32 -10 -48 11 -13 10 -15 -6 -9 -15 6 -17 5
-7 -6 9 -11 8 -17 -4 -27 -12 -10 -7 -27 40 -121 31 -60 57 -109 60 -109 3 0
-4 18 -15 40 -26 50 -19 52 10 4 11 -20 19 -43 16 -51 -4 -9 -1 -11 6 -7 8 5
9 2 5 -10 -4 -10 -3 -15 3 -11 12 8 33 -33 26 -51 -3 -8 -2 -13 3 -10 5 3 15
-2 22 -11 12 -15 12 -16 -3 -10 -12 4 -15 2 -11 -9 3 -7 12 -14 20 -14 10 0
14 -7 10 -20 -3 -13 -1 -18 6 -13 7 4 8 0 4 -11 -5 -11 -3 -15 5 -10 8 5 9 2
5 -9 -4 -10 -2 -16 6 -14 7 1 12 -10 13 -26 1 -15 5 -31 9 -35 5 -4 5 1 2 10
-7 20 8 25 17 6 3 -7 3 73 0 177 -6 182 -5 191 14 208 28 25 102 14 102 -15 0
-7 -4 -7 -12 0 -10 8 -14 -37 -16 -216 -1 -124 1 -223 4 -219 4 3 6 44 5 91
-1 46 3 87 8 90 6 4 7 -14 4 -44 -4 -44 -2 -50 14 -50 15 0 16 2 3 10 -13 8
-8 14 11 12 3 -1 11 10 18 24 9 20 9 24 -1 18 -7 -4 -3 3 10 15 23 22 30 37
12 26 -6 -3 -7 1 -4 9 3 9 10 13 15 10 5 -3 6 3 2 12 -4 12 -3 15 5 10 8 -5
10 -2 6 8 -3 9 3 31 15 49 11 19 19 36 16 39 -3 3 5 13 16 24 21 18 21 17 -2
-26 -29 -54 -40 -80 -34 -80 9 0 108 208 109 230 1 15 6 24 14 22 8 -1 11 2 8
7 -8 12 4 42 14 36 5 -3 12 0 16 6 5 8 3 9 -6 4 -10 -6 -12 -4 -7 9 4 11 3 15
-4 10 -7 -4 -9 0 -6 12 7 21 -16 71 -30 66 -4 -2 -9 5 -11 15 -3 15 -1 16 8 3
10 -12 11 -12 5 5 -3 10 -14 45 -23 77 l-17 58 -227 0 c-210 0 -228 -1 -229
-17 0 -16 -1 -15 -8 2 -7 16 -9 14 -14 -13z m18 -22 c3 -5 1 -10 -4 -10 -6 0
-11 5 -11 10 0 6 2 10 4 10 3 0 8 -4 11 -10z m465 0 c0 -5 -2 -10 -4 -10 -3 0
-8 5 -11 10 -3 6 -1 10 4 10 6 0 11 -4 11 -10z m-211 -37 c14 11 14 10 2 -5
-7 -10 -25 -18 -38 -18 -22 0 -24 2 -13 15 9 11 16 13 23 6 7 -7 16 -7 26 2z
m-274 -23 c3 -5 1 -10 -4 -10 -6 0 -11 5 -11 10 0 6 2 10 4 10 3 0 8 -4 11
-10z m315 -26 c0 5 11 -1 25 -14 21 -19 24 -30 20 -64 -4 -32 -3 -37 5 -21 9
17 9 15 4 -10 -3 -16 -19 -44 -36 -61 -26 -28 -35 -31 -69 -27 -56 8 -78 -21
-81 -107 l-2 -65 -3 63 c-3 41 0 69 9 79 15 18 20 45 7 37 -5 -3 -12 2 -15 10
-3 9 -11 13 -17 9 -6 -3 -7 -1 -3 5 6 11 -5 16 -26 13 -7 -1 -4 54 7 90 5 18
4 21 -4 9 -16 -23 -13 -3 4 30 9 17 21 30 27 30 6 0 4 -8 -5 -18 -10 -10 -17
-22 -17 -27 0 -4 9 4 21 19 11 14 18 30 15 34 -3 5 20 6 50 4 41 -3 54 -1 54
9 1 8 7 3 15 -11 8 -14 14 -21 15 -16z m230 -74 c0 -5 -4 -10 -10 -10 -5 0
-10 5 -10 10 0 6 5 10 10 10 6 0 10 -4 10 -10z m-592 -75 c-3 -3 -9 2 -12 12
-6 14 -5 15 5 6 7 -7 10 -15 7 -18z m26 -34 c13 -14 14 -21 5 -27 -8 -4 -10
-3 -5 4 4 7 3 12 -2 12 -6 0 -12 7 -16 15 -7 20 -3 19 18 -4z m524 -46 c-6
-14 -15 -25 -20 -25 -5 0 -1 11 8 25 9 14 18 25 20 25 2 0 -2 -11 -8 -25z
m-187 -114 c0 -45 -2 -85 -5 -88 -3 -4 -6 36 -6 87 0 51 2 91 5 88 3 -3 6 -42
6 -87z m161 72 c-6 -2 -9 -10 -6 -15 4 -7 2 -8 -5 -4 -13 9 -5 26 12 25 9 0 8
-2 -1 -6z m-285 -235 c-2 -18 -4 -4 -4 32 0 36 2 50 4 33 2 -18 2 -48 0 -65z"/>
<path d="M1441 1154 c-43 -36 -44 -93 -2 -135 39 -38 80 -39 123 0 44 39 44
93 -1 133 -40 36 -80 36 -120 2z"/>
<path d="M1586 1145 c24 -39 24 -40 24 -28 0 6 -9 21 -21 34 l-20 24 17 -30z"/>
<path d="M1390 1051 c0 -6 4 -13 10 -16 6 -3 7 1 4 9 -7 18 -14 21 -14 7z"/>
<path d="M1581 1016 l-24 -31 28 27 c16 15 27 29 24 31 -2 3 -15 -10 -28 -27z"/>
<path d="M1457 527 c-3 -8 -1 -20 4 -28 6 -10 9 -7 9 14 0 29 -5 35 -13 14z"/>
</g>
</svg>
