<?xml version="1.0" encoding="UTF-8" standalone="no"?>
<!-- Created with Inkscape (http://www.inkscape.org/) -->

<svg
   xmlns:dc="http://purl.org/dc/elements/1.1/"
   xmlns:cc="http://creativecommons.org/ns#"
   xmlns:rdf="http://www.w3.org/1999/02/22-rdf-syntax-ns#"
   xmlns:svg="http://www.w3.org/2000/svg"
   xmlns="http://www.w3.org/2000/svg"
   xmlns:xlink="http://www.w3.org/1999/xlink"
   xmlns:sodipodi="http://sodipodi.sourceforge.net/DTD/sodipodi-0.dtd"
   xmlns:inkscape="http://www.inkscape.org/namespaces/inkscape"
   version="1.0"
   width="2825.5601"
   height="2778.75"
   id="svg2403"
   xml:space="preserve"
   inkscape:version="0.48.4 r9939"
   sodipodi:docname="Xeografía en progreso.svg"><sodipodi:namedview
     pagecolor="#ffffff"
     bordercolor="#666666"
     borderopacity="1"
     objecttolerance="10"
     gridtolerance="10"
     guidetolerance="10"
     inkscape:pageopacity="0"
     inkscape:pageshadow="2"
     inkscape:window-width="1366"
     inkscape:window-height="705"
     id="namedview94"
     showgrid="false"
     inkscape:zoom="0.19886478"
     inkscape:cx="2088.0266"
     inkscape:cy="1909.2661"
     inkscape:window-x="-8"
     inkscape:window-y="-8"
     inkscape:window-maximized="1"
     inkscape:current-layer="svg2403" /><metadata
     id="metadata2408"><rdf:RDF><cc:Work
         rdf:about=""><dc:format>image/svg+xml</dc:format><dc:type
           rdf:resource="http://purl.org/dc/dcmitype/StillImage" /><dc:title></dc:title></cc:Work></rdf:RDF></metadata><defs
     id="defs2406"><clipPath
       id="clipPath2462"><path
         d="M 0,0 z"
         id="path2464"
         inkscape:connector-curvature="0" /></clipPath><clipPath
       id="clipPath2556"><path
         d="M 0,0 z"
         id="path2558"
         inkscape:connector-curvature="0" /></clipPath><clipPath
       id="clipPath8976"><path
         d="M 0,0 z"
         id="path8978"
         inkscape:connector-curvature="0" /></clipPath><radialGradient
       cx="-64.642998"
       cy="440.66"
       r="97.987999"
       id="radialGradient10980"
       gradientUnits="userSpaceOnUse"
       gradientTransform="matrix(3.1101,0,0,-3.1112,193.96175,1492.9706)"><stop
         id="stop11850"
         style="stop-color:#ffffff;stop-opacity:1"
         offset="0" /><stop
         id="stop11852"
         style="stop-color:#94caff;stop-opacity:1"
         offset="1" /></radialGradient><radialGradient
       cx="1009.6"
       cy="807.87"
       r="269.54999"
       id="radialGradient12103"
       gradientUnits="userSpaceOnUse"
       gradientTransform="matrix(0.33078,-1.6666,1.1545,0.22916,-165.22,2298.8)"><stop
         id="stop12107"
         style="stop-color:#6a0000;stop-opacity:1"
         offset="0" /><stop
         id="stop12109"
         style="stop-color:#569b0f;stop-opacity:1"
         offset="0.57332999" /><stop
         id="stop12111"
         style="stop-color:#4ce72c;stop-opacity:1"
         offset="1" /></radialGradient><filter
       x="-0.21435"
       y="-0.7457"
       width="1.4287"
       height="2.4914"
       color-interpolation-filters="sRGB"
       id="filter13813"><feGaussianBlur
         stdDeviation="44.120537"
         id="feGaussianBlur13815" /></filter><filter
       x="-0.17803"
       y="-0.61935002"
       width="1.3561"
       height="2.2386999"
       color-interpolation-filters="sRGB"
       id="filter4555"><feGaussianBlur
         stdDeviation="36.644764"
         id="feGaussianBlur4557" /></filter><radialGradient
       cx="99.958"
       cy="139.37"
       r="45.07"
       id="radialGradient4615"
       gradientUnits="userSpaceOnUse"
       gradientTransform="matrix(-0.43000505,-2.7621937,-2.5024867,0.38955403,1176.0348,529.3121)"><stop
         id="stop4611"
         style="stop-color:#000000;stop-opacity:0"
         offset="0" /><stop
         id="stop4623"
         style="stop-color:#000000;stop-opacity:0.023529"
         offset="0.49270001" /><stop
         id="stop4621"
         style="stop-color:#000000;stop-opacity:0.035294"
         offset="0.57086998" /><stop
         id="stop4619"
         style="stop-color:#000000;stop-opacity:0.066667"
         offset="0.63646001" /><stop
         id="stop4617"
         style="stop-color:#000000;stop-opacity:0.14894"
         offset="0.69578999" /><stop
         id="stop4625"
         style="stop-color:#000000;stop-opacity:0.21277"
         offset="0.73030001" /><stop
         id="stop4613"
         style="stop-color:#000000;stop-opacity:0.54610002"
         offset="1" /></radialGradient><linearGradient
       x1="54.509998"
       y1="41.179001"
       x2="9.5471001"
       y2="16.249001"
       id="edgeGradient"
       xlink:href="#fieldGradient"
       gradientUnits="userSpaceOnUse"><stop
         id="stop12"
         style="stop-color:#f98433;stop-opacity:1"
         offset="0" /><stop
         id="stop14"
         style="stop-color:#e37b00;stop-opacity:1"
         offset="1" /></linearGradient><linearGradient
       x1="52.778"
       y1="-13.239"
       x2="22.014"
       y2="51.987"
       id="fieldGradient"
       gradientUnits="userSpaceOnUse"><stop
         id="stop7"
         style="stop-color:#ffe1b8;stop-opacity:1"
         offset="0" /><stop
         id="stop9"
         style="stop-color:#ff8b00;stop-opacity:1"
         offset="1" /></linearGradient><linearGradient
       x1="52.778"
       y1="-13.239"
       x2="22.014"
       y2="51.987"
       id="linearGradient3998"
       xlink:href="#fieldGradient"
       gradientUnits="userSpaceOnUse" /><linearGradient
       x1="17.464077"
       y1="158.85419"
       x2="306.10614"
       y2="158.85419"
       id="linearGradient5310"
       xlink:href="#radialGradient4615"
       gradientUnits="userSpaceOnUse"
       gradientTransform="matrix(9.6229353,0,0,8.8547235,-153.19299,-30.597134)" /><linearGradient
       inkscape:collect="always"
       xlink:href="#radialGradient4615"
       id="linearGradient4198"
       gradientUnits="userSpaceOnUse"
       gradientTransform="matrix(9.6229353,0,0,8.8547235,-153.19299,-30.597134)"
       x1="17.464077"
       y1="158.85419"
       x2="306.10614"
       y2="158.85419" /></defs><g
     id="g4137"
     transform="translate(-2.635947e-5,5.0285408)"><g
       id="g4077"><g
         id="g4018"><g
           id="g3959"><g
             transform="matrix(15.401303,0,0,-15.267347,-10836.112,5575.7031)"
             id="g2412"><g
               transform="matrix(0.41782,0,0,0.41782,478.91,153.02)"
               id="g2456"><g
                 id="g2458"><g
                   clip-path="url(#clipPath2462)"
                   id="g2460"><text
   transform="matrix(1,0,0,-1,47.37,20.402)"
   id="text2466"><tspan
     x="0 3.96 7.9200001 11.88 15.84 17.82 20.900881 24.86088 28.820881 30.80088 34.76088 38.720879 40.700878 44.660881 48.62088 50.822639 54.782639 58.742641 60.944401 64.904404"
     y="0"
     id="tspan2468"
     style="font-size:7.92000008px;fill:#ffffff;font-family:Times">2008 Jun 12 04:45:24</tspan></text>


</g></g></g><g
               transform="matrix(0.41782,0,0,0.41782,478.91,153.02)"
               id="g2550"><g
                 id="g2552"><g
                   clip-path="url(#clipPath2556)"
                   id="g2554"><text
   transform="matrix(1,0,0,-1,134.16,20.88)"
   id="text2560"><tspan
     x="0 5.0251198 11.21256 15.85488 17.594879 19.91256 21.652559 27.84 30.930241 33.247921 35.1828 37.11768 40.597679 42.337681 48.907921 51.998161 53.933041 57.41304 60.503281 62.43816"
     y="0"
     id="tspan2562"
     style="font-size:6.96000004px;fill:#000000;font-family:Times">OMC - Martin Weinelt</tspan></text>


</g></g></g><g
               transform="matrix(0.41782,0,0,0.41782,478.91,153.02)"
               id="g2786"><path
                 d="m 335.76,419.04 h -0.48 0.48 z"
                 id="path2788"
                 style="fill:#dcdcdc"
                 inkscape:connector-curvature="0" /></g><g
               transform="matrix(0.41782,0,0,0.41782,478.91,153.02)"
               id="g2834"><path
                 d="m 356.4,435.84 v 0.24 -0.24 z"
                 id="path2836"
                 style="fill:#ffffff"
                 inkscape:connector-curvature="0" /></g><g
               transform="matrix(0.41782,0,0,0.41782,478.91,153.02)"
               id="g2978"><path
                 d="m 341.28,473.52 h 0.24 -0.24 z"
                 id="path2980"
                 style="fill:#dcdcdc"
                 inkscape:connector-curvature="0" /></g><g
               transform="matrix(0.41782,0,0,0.41782,478.91,153.02)"
               id="g3062"><path
                 d="m 335.52,485.52 h -0.24 0.24 z"
                 id="path3064"
                 style="fill:#dcdcdc"
                 inkscape:connector-curvature="0" /></g><g
               transform="matrix(0.41782,0,0,0.41782,478.91,153.02)"
               id="g3706"><path
                 d="m 254.64,434.4 h 0.24 -0.24 z"
                 id="path3708"
                 style="fill:#dcdcdc"
                 inkscape:connector-curvature="0" /></g><g
               transform="matrix(0.41782,0,0,0.41782,478.91,153.02)"
               id="g4618"><path
                 d="m 354.24,487.92 h 1.44 -1.44 z"
                 id="path4620"
                 style="fill:#dcdcdc"
                 inkscape:connector-curvature="0" /></g><g
               transform="matrix(0.41782,0,0,0.41782,478.91,153.02)"
               id="g4762"><path
                 d="m 296.64,503.76 h -1.92 4.08 -2.16 z"
                 id="path4764"
                 style="fill:#dcdcdc"
                 inkscape:connector-curvature="0" /></g><g
               transform="matrix(0.41782,0,0,0.41782,478.91,153.02)"
               id="g4766"><path
                 d="m 295.68,502.32 h 2.4 -2.4 z"
                 id="path4768"
                 style="fill:#dcdcdc"
                 inkscape:connector-curvature="0" /></g><g
               transform="matrix(0.41782,0,0,0.41782,478.91,153.02)"
               id="g4794"><path
                 d="m 296.64,503.76 h -1.92 4.08 -2.16 z"
                 id="path4796"
                 style="fill:#dcdcdc"
                 inkscape:connector-curvature="0" /></g><g
               transform="matrix(0.41782,0,0,0.41782,478.91,153.02)"
               id="g4798"><path
                 d="m 295.68,502.32 h 2.4 -2.4 z"
                 id="path4800"
                 style="fill:#dcdcdc"
                 inkscape:connector-curvature="0" /></g><g
               transform="matrix(0.41782,0,0,0.41782,478.91,153.02)"
               id="g4918"><path
                 d="m 235.92,496.8 h 0.96 -1.68 0.72 z"
                 id="path4920"
                 style="fill:#dcdcdc"
                 inkscape:connector-curvature="0" /></g><g
               transform="matrix(0.41782,0,0,0.41782,478.91,153.02)"
               id="g4982"><path
                 d="m 235.92,496.8 h 0.96 -1.68 0.72 z"
                 id="path4984"
                 style="fill:#dcdcdc"
                 inkscape:connector-curvature="0" /></g><g
               transform="matrix(0.41782,0,0,0.41782,478.91,153.02)"
               id="g8318"><path
                 d="m 500.64,257.76 v -0.96 0.96 z"
                 id="path8320"
                 style="fill:#dcdcdc"
                 inkscape:connector-curvature="0" /></g><g
               transform="matrix(0.41782,0,0,0.41782,478.91,153.02)"
               id="g8322"><path
                 d="m 500.4,310.56 v -0.24 0.48 -0.24 z"
                 id="path8324"
                 style="fill:#dcdcdc"
                 inkscape:connector-curvature="0" /></g><g
               transform="matrix(0.41782,0,0,0.41782,478.91,153.02)"
               id="g8370"><path
                 d="m 500.64,257.76 v -0.96 0.96 z"
                 id="path8372"
                 style="fill:#dcdcdc"
                 inkscape:connector-curvature="0" /></g><g
               transform="matrix(0.41782,0,0,0.41782,478.91,153.02)"
               id="g8522"><path
                 d="m 75.599,256.32 v -0.24 0.24 z"
                 id="path8524"
                 style="fill:#dcdcdc"
                 inkscape:connector-curvature="0" /></g><g
               transform="matrix(0.41782,0,0,0.41782,478.91,153.02)"
               id="g8970"><g
                 id="g8972"><g
                   clip-path="url(#clipPath8976)"
                   id="g8974"><text
   transform="matrix(1,0,0,-1,408.32,40.076)"
   id="text8980"><tspan
     x="0 6.96"
     y="0"
     id="tspan8982"
     style="font-size:13.92000008px;fill:#000000;font-family:Times">km</tspan></text>


</g></g></g><g
               transform="matrix(0.45945,0.14179,0.14179,-0.45945,742.72,383.75)"
               id="ce"><path
                 d="M 38.513145,434.56479 C 141.92634,435.04048 225.42962,352.29243 224.95407,250.30338 224.48155,148.9645 140.20296,65.434841 36.789767,64.959154 -65.884462,64.490806 -150.1067,147.24145 -149.63418,248.58032 c 0.47555,101.98906 85.471079,185.51217 188.147325,185.98447 z"
                 id="path10955"
                 style="opacity:0.4;fill:#4ed0c6;fill-opacity:1"
                 inkscape:connector-curvature="0" /></g><g
               transform="matrix(0.41782,0,0,0.41782,675.26,153.02)"
               id="g2650"><path
                 d="m 946.25,360 -13.22,1.19 -2.09,0.31 h 2.4 l -7.22,1.81 -3,0.28 1.82,-0.28 h -2.69 l 3.28,-0.31 2.09,-0.31 0.63,-0.6 -2.13,0.32 1.5,-0.6 -4.5,0.88 h -0.59 l 0.31,0.31 h -2.4 l -0.91,0.31 h 2.09 l -1.78,0.6 v -0.32 l -0.59,0.32 h -0.63 l -2.09,0.28 0.91,-0.28 -1.82,0.28 h -0.59 l -2.41,0.31 h -1.78 l -6.31,1.19 -3,0.31 -0.59,0.31 -0.6,0.28 h -0.31 l 0.31,-0.28 -9.31,1.19 -1.19,0.59 1.28,-0.21 0.22,0.21 h -1.5 -0.31 l -2.09,0.32 2.68,0.28 h -3 l -1.78,0.31 -0.31,0.31 V 369 l -2.41,0.59 0.63,-0.28 -1.81,0.6 0.9,-0.6 -6.59,1.5 -1.22,0.6 h -1.5 l -1.5,0.28 -0.59,0.31 h -0.32 l -1.5,0.59 1.22,-0.59 h -0.31 l -2.69,0.91 0.91,-0.6 -3,0.88 -0.31,0.31 -0.6,0.31 -1.81,0.6 2.09,-0.91 -4.18,1.19 -0.91,0.31 -1.19,0.59 0.28,-0.28 -1.18,0.28 -1.13,0.38 -1.87,0.84 1.18,-0.62 -2.68,1.22 0.59,-0.32 -1.19,0.32 -1.81,0.59 -0.28,0.31 -1.22,0.28 h 0.31 l -0.59,0.32 -1.5,0.59 0.28,-0.31 h -0.28 l -1.81,0.9 -2.41,1.22 h -0.59 l -0.6,0.28 -0.31,0.32 -1.78,0.9 h -0.63 l -1.18,0.6 -0.32,0.28 -1.18,0.62 -1.22,0.6 h -0.6 l -0.9,0.28 -3,1.5 -0.88,0.31 -4.22,2.09 -0.87,0.32 -3,1.5 -0.63,0.59 -2.37,1.19 -0.91,0.31 -1.22,0.59 -0.59,0.6 -3,1.5 -0.59,0.62 -1.82,0.88 -0.59,0.62 -0.91,0.28 -1.78,0.91 -0.59,0.59 -1.22,0.6 -0.59,0.62 -1.82,0.88 -0.59,0.62 -0.59,0.28 -4.82,3.32 -4.78,3 -11.4,8.68 -0.13,0.07 -0.47,0.25 -0.31,0.28 -0.59,0.31 -0.6,0.59 -0.59,0.32 -0.31,0.59 -0.1,0.03 -0.5,0.28 h 0.19 l -1.09,0.88 -3.91,3.31 -0.91,0.59 -0.59,0.32 -1.19,1.18 -0.9,0.6 -2.41,2.4 -0.91,0.6 -4.18,4.22 -0.91,0.59 -0.91,0.91 -0.28,0.28 -1.43,1.47 -0.07,0.03 -1.22,1.22 -0.03,0.06 -1.12,1.09 -0.03,0.03 -1.19,1.22 -1.16,1.16 -0.06,0.03 -0.28,0.31 -0.63,0.6 -0.28,0.59 -3.31,3.31 -0.28,0.28 -0.31,0.6 -0.6,0.62 -0.06,0.03 -0.53,0.25 -0.31,0.6 -0.94,0.93 -0.03,0.04 -0.22,0.25 -0.31,0.59 -1.5,1.5 -0.32,0.59 -1.18,1.22 -0.32,0.6 -1.18,1.18 -0.32,0.6 -1.18,1.22 -0.32,0.59 -1.18,1.19 -0.32,0.62 -0.59,0.6 -0.28,0.59 -0.63,0.59 -0.28,0.6 h -0.31 l -0.28,0.62 -0.63,0.6 -0.28,0.59 -0.59,0.59 -0.63,1.22 -0.59,0.6 -0.28,0.59 -0.63,0.59 -0.28,0.6 -0.59,0.62 -0.63,1.19 -0.59,0.59 -0.34,0.69 -0.25,0.53 -0.1,0.1 -2.31,4.09 0.91,-0.91 -1.19,1.5 -0.63,1.22 -0.28,0.28 -0.9,1.82 0.31,-0.32 -1.22,2.41 -0.91,1.19 -0.59,1.22 -0.28,0.9 -0.31,0.28 -0.6,1.22 -0.31,0.6 -3.28,5.68 -2.13,2.72 v 0.6 l -0.87,0.9 -1.5,2.38 -0.31,0.9 -2.41,3.91 -1.19,3 -0.9,1.19 -0.32,1.22 -0.28,0.59 3.28,-4.81 7.82,-12.6 3.31,-4.5 1.78,-0.9 h 0.91 l 1.81,-0.28 1.5,2.4 0.59,-1.81 0.6,0.31 0.9,-1.81 -0.9,2.41 h 0.59 l 0.91,-1.22 -0.6,0.31 0.91,-0.91 v -1.5 l 0.87,0.32 -0.87,1.5 1.31,-1.53 1.06,-1.47 1.5,-3 -0.59,1.78 0.38,-0.63 0.84,-0.56 0.34,-0.53 0.53,-0.38 0.32,-0.59 1.5,-3 0.9,-0.59 -2.4,3.59 2.4,-2.41 1.5,-1.5 0.6,0.91 -2.1,0.59 -2.72,4.22 -2.37,1.78 3.59,-1.78 3.91,-4.81 -2.41,3.59 2.1,-0.59 2.4,-2.41 h 1.5 l 0.6,3.6 1.18,-1.19 -0.87,1.5 0.28,1.81 1.5,-1.22 -1.19,0.32 2.1,-3.32 4.5,-2.09 v 0.91 l 1.18,-0.91 -0.59,1.5 2.41,-1.19 -1.19,0.88 0.87,0.31 -0.59,1.19 1.5,0.9 1.5,-1.78 -0.59,2.1 3.59,1.78 -2.09,0.31 0.59,3 -1.5,-0.31 0.91,-1.78 -3,-0.91 -2.41,2.09 -0.91,2.41 3.91,-1.19 -0.28,1.78 0.87,-0.9 2.72,3.31 0.6,0.31 1.5,-3.62 -1.19,-2.1 1.5,-4.5 2.69,-2.09 -0.32,-1.19 2.72,-0.9 -0.9,-1.22 0.9,-1.19 0.28,-1.81 0.32,2.72 1.81,0.59 2.09,-2.41 v -3 l -2.09,-2.09 -6.63,-0.91 3.32,-0.28 1.81,-1.22 3.87,2.1 2.41,-0.6 1.22,-0.28 2.09,11.38 h 0.28 l 4.22,-0.6 1.5,2.41 3.28,0.31 0.91,-2.12 0.59,1.22 -0.28,-2.1 0.6,1.5 0.59,-1.5 2.09,-0.9 1.22,-2.1 -1.81,-0.62 2.09,-0.88 0.32,-2.4 -3.6,-1.22 -1.5,-0.6 1.78,0.6 0.32,-0.28 0.59,-0.32 0.31,-0.28 0.6,-0.31 0.31,-0.59 0.59,-0.32 0.28,-0.28 0.63,-0.31 0.28,-0.31 0.59,-0.28 0.32,-0.32 0.59,-0.28 0.31,-0.31 0.6,-0.31 -1.5,-0.28 3.31,-1.5 h -0.91 l 0.91,-0.6 v -2.12 h 1.19 v -0.88 l 0.31,0.28 0.28,-1.18 0.59,0.59 0.63,-1.81 -0.31,1.5 2.09,-0.6 0.91,-2.68 0.9,0.59 0.91,-1.81 0.87,-0.28 -0.87,-0.91 h 2.09 l -0.9,-0.91 h 1.81 l 1.5,-1.18 -0.63,-1.22 0.91,0.62 3,-3.62 h 1.22 l 0.28,-0.88 -2.69,0.28 -1.5,1.5 -0.59,-0.9 -0.63,1.22 -1.18,-0.6 -2.1,1.19 2.1,-1.81 h -3.32 l 2.13,-1.78 -2.41,0.28 3.28,-1.19 -0.28,-2.69 h 1.19 l -0.91,0.88 2.13,-0.6 v -0.59 l 2.69,-1.19 0.31,-1.81 v 1.81 l 4.19,-1.81 h -1.19 l 1.5,-3 1.78,-0.59 V 435 l 3.91,-3.31 -1.5,-0.6 2.68,-4.5 -1.18,-0.59 -3,2.09 -3,0.32 V 429 l -3.32,1.81 -5.09,0.28 -3,3.32 -6.59,3.59 -3.91,0.59 -1.5,-2.4 -2.09,2.12 -7.5,4.78 h -1.5 l -2.41,1.5 2.09,-1.78 -1.78,0.28 0.28,-0.59 0.91,-1.19 1.5,-0.9 5.41,-5.1 8.4,-3.9 2.1,-4.5 12.31,-11.1 0.28,-2.4 h 1.22 l 6,-2.41 1.19,-1.5 -1.5,0.31 3.31,-1.5 5.09,-1.22 3,0.91 1.19,-0.59 0.91,1.5 1.5,-0.91 -0.91,1.19 0.91,0.62 2.68,-1.5 v -0.9 h 0.63 l 2.09,-1.82 1.19,-0.28 -3.91,3 -1.5,1.19 2.13,0.31 -1.22,2.1 3.31,0.59 5.69,-5.09 -0.28,1.18 -4.5,3.32 2.69,0.9 2.09,-1.5 -3,3.6 3.59,-2.1 -0.59,1.19 -2.41,1.19 3.63,1.22 4.78,-2.41 0.31,1.19 1.5,-0.88 1.19,0.28 2.09,-2.09 0.32,0.59 1.81,-2.68 -5.13,1.5 0.63,-0.91 h -5.72 l -0.28,-0.91 8.09,-1.78 1.78,-1.22 -3.87,-0.28 5.69,-1.81 -0.32,1.19 2.41,-2.38 h 1.19 0.03 l 0.87,0.28 -0.9,0.6 9.31,-2.69 -3.31,-1.81 -1.19,0.9 -2.41,-0.28 h -0.59 l -3.91,2.69 0.32,-0.91 h -2.1 l 0.6,0.6 -2.1,0.31 -0.59,-1.5 -3.63,0.31 2.13,-1.22 3,0.32 -0.63,-0.6 0.91,0.28 1.5,-0.9 0.59,-1.19 -2.37,0.59 -0.31,0.6 h -1.82 l 3.32,-1.19 -1.19,-0.31 0.87,-0.88 2.13,-2.12 2.69,-0.88 1.81,-1.5 3.87,-0.9 0.32,-2.1 -1.5,0.88 -0.6,1.5 -0.31,-1.78 -3.28,0.59 h -1.22 l 1.5,-0.59 -3,0.59 4.22,-1.19 v 0.6 l 4.78,-1.82 0.91,-1.5 4.5,-2.4 h 1.5 l -1.22,1.22 3,-0.6 2.4,-1.5 5.41,-1.5 3.31,-0.9 2.1,-1.82 1.81,0.6 0.28,-0.28 -0.59,-0.91 3.59,-0.31 h 0.31 l 1.19,-0.6 2.41,-1.78 0.31,0.88 h 0.28 l 0.31,-0.28 h 0.28 l 2.13,-1.82 1.5,-0.59 1.5,0.31 1.19,-0.9 -2.1,-0.32 8.69,-0.9 4.81,-0.28 h 0.88 0.03 0.28 l 12.59,-1.5 2.1,0.28 -0.28,0.31 3,-0.31 1.5,0.62 1.18,-0.62 -0.31,0.62 h 1.22 l 2.09,-0.62 2.69,-0.28 0.31,-0.6 0.32,0.28 0.28,0.32 2.72,-0.6 0.87,-0.31 h 0.03 l 2.69,-1.19 h 3.91 l 1.5,-0.62 -4.5,-0.88 -0.6,-0.62 h -0.03 l -3.87,-0.28 -0.32,-0.6 h 0.26 L 949.53,366 h 5.09 l 0.91,0.59 7.5,-0.28 -3.59,-0.62 h 1.78 l -1.19,-0.6 -6.28,-0.59 h -0.03 v 0.31 l -0.6,-0.31 -2.09,0.31 h -2 v -0.03 l 1.41,-0.28 -1.5,-0.59 0.87,-0.32 h 0.03 l 2.41,0.32 2.37,-0.6 2.13,0.28 4.47,-0.9 -1.19,-0.28 h -0.91 l -3.87,-0.32 h 2.69 l -0.6,-0.59 h -4.81 l -1.5,-0.31 1.5,-0.28 -4.19,0.28 -0.9,-0.28 h -2.69 l -0.91,0.28 -0.9,-0.28 -3.32,0.28 1.82,-0.28 -0.6,-0.32 6.6,-0.28 V 360 h -1.19 z m 4.13,6.31 1.56,0.6 -1.5,-0.6 h -0.06 z m -218.82,120.57 -2.22,3.03 2.69,-3.6 -0.47,0.57 z m -3.22,-13.97 0.35,-0.63 -0.47,0.75 0.12,-0.12 z m -0.12,0.12 -0.38,0.38 -0.59,1.18 0.97,-1.56 z m 128.09,-97.06 0.81,-0.38 -1.18,0.47 -0.13,0.06 0.5,-0.15 z m 91.41,-13.28 0.31,0.31 -0.59,0.31 V 363 l 0.28,-0.31 z m 24.31,3.31 1.81,0.59 h -2.4 l -0.6,0.32 -1.81,-0.32 0.31,0.32 -1.5,-0.32 -2.09,0.32 2.97,1.18 h 0.03 l 3.28,0.6 2.09,0.31 -0.28,-1.19 0.6,2.1 6,2.68 4.5,2.41 4.5,0.91 2.09,1.18 h 0.59 l 0.32,0.32 h 1.81 l -0.31,-1.22 1.81,0.31 2.09,1.5 -0.59,0.59 2.09,0.32 5.46,2.68 3,0.32 -1,1.18 h -0.3 l -0.9,1.22 2.7,2.1 4.5,2.09 0.6,3 -1.8,-0.91 v 1.5 l 1.2,0.6 4.2,0.9 -2.7,0.32 1.2,-0.6 -2.7,-0.31 2.7,4.19 0.9,-0.28 1.8,0.9 h 0.3 0.3 2.7 0.3 l 1,1.19 2,0.31 -0.9,1.5 2.1,1.78 -1.5,0.6 6.3,1.81 -4.5,1.81 -1.2,-0.9 -0.9,0.59 -0.9,-0.91 -2.1,0.6 0.9,1.81 -1.8,1.19 4.8,1.81 0.3,2.09 -1.4,1 -1,-0.4 -0.1,1.19 -4.7,3.31 -2.1,-1.78 -2.7,0.28 1.2,-0.6 -1.2,-0.59 -4.2,1.19 1.2,3 -1.8,-0.88 -1.2,1.78 -1.2,-1.5 -1.8,0.91 2.7,2.41 2.7,0.9 -0.3,0.88 -0.3,0.62 h 2.4 l -1.2,0.28 1.2,2.72 -1.2,-0.62 -0.9,1.81 0.9,0.59 0.4,-0.9 0.5,6 2.1,1.22 -1.5,0.28 4.9,1.22 -2.8,5.09 4.5,2.69 4.5,-0.25 -1.2,1.47 -2.4,0.28 -2.4,0.31 v 1.19 l 1.8,0.62 -1.8,1.19 5.8,0.59 -3,1.22 -7.3,-3.62 2.7,1.81 0.9,3.31 4.2,1.5 1.8,1.78 2.7,2.72 1.8,-2.12 3,-0.28 2.7,1.18 1.2,2.1 2.4,-0.28 -2.7,0.59 -4.8,-3 -1.2,2.09 3.9,3 2.4,6.91 -5.1,1.19 2.1,-3 -3.3,-6.28 -2.7,-0.6 -3.6,-3.31 -3,-2.41 -3,-0.9 -3.6,-4.19 -1.8,0.31 -2.1,1.19 3.6,4.5 v 2.69 l 3.6,3.31 1.5,1.19 1.5,-0.88 3.3,1.19 1.5,3.31 -6.3,-1.22 0.9,-0.28 -8.7,0.88 v 1.5 l 3.3,1.81 -1.2,1.19 v 0.03 l 0.6,1.19 -2.7,-1.5 -0.9,2.4 -2.6,1.19 v 1.81 l -2.5,0.6 -0.9,-2.41 0.9,-0.91 -0.9,0.32 -0.6,3.31 -0.86,-0.91 -3.91,4.19 1.5,0.91 -2.09,0.59 0.9,2.72 -2.4,1.19 -2.69,-1.82 2.09,-2.37 -0.9,-0.91 -6.32,-0.9 2.41,1.18 3.91,9 -4.19,-1.5 -1.81,2.72 -0.91,1.78 0.31,0.63 0.28,0.87 0.32,0.63 1.5,2.09 h -0.91 l -3.28,-0.31 -0.63,0.91 0.63,-1.22 -3.31,-0.6 -0.32,1.82 3.63,1.18 -0.63,2.41 -6,-2.09 -2.09,-3.32 0.59,-2.09 -3.87,-1.19 1.19,-0.9 -3.91,-2.41 14.09,2.09 1.22,-1.78 -0.31,-0.62 -0.28,-0.88 -0.31,-0.62 -1.19,-3.6 -0.91,-0.9 -8.72,-2.69 -2.68,0.31 -0.6,1.5 0.28,-2.12 -2.09,0.31 -0.59,-1.19 h 1.81 l -1.81,-0.9 -1.19,1.78 -1.81,-1.19 -0.91,1.19 -1.5,-1.19 -0.59,-0.91 2.68,0.32 1.22,-1.5 -3.59,-1.5 -1.5,2.09 0.87,-2.41 -1.5,-0.28 -0.59,2.38 -0.91,0.62 v -2.4 l -1.78,3.59 0.6,-3.31 -1.82,-0.28 -1.5,3.9 v 0.28 l -0.28,-0.28 h -0.59 l -0.63,0.28 h -1.18 l 0.59,0.91 -1.5,-0.91 -2.09,2.72 h -0.32 l 0.32,-0.62 V 480 l -0.6,1.19 v -1.5 l -1.22,0.9 0.91,1.5 -2.09,-0.9 -0.91,3 -2.09,0.62 2.4,0.28 -2.72,0.32 v 2.09 l -0.59,-1.81 -1.5,0.9 1.22,0.6 h -1.81 l 1.5,1.22 -2.69,1.18 1.78,0.6 -3.59,0.62 0.9,0.6 -2.09,2.4 2.09,-0.31 -3,0.59 0.91,1.22 -0.91,-0.62 -1.5,3 1.78,-0.28 -3.59,1.5 1.81,-0.32 -1.81,0.91 0.91,1.19 -1.5,0.31 -0.32,-1.19 -3.59,3.6 1.81,0.59 2.41,-2.09 -1.22,2.68 -2.41,0.32 -0.28,-1.22 -2.4,0.62 -0.32,2.38 -1.5,-0.88 1.22,1.5 -3,-1.5 2.1,1.5 -3.91,-0.31 1.5,2.41 -0.91,-1.22 -0.59,0.9 -1.19,-0.59 0.6,0.91 -2.41,-1.22 v 1.5 l -0.91,1.22 1.82,0.9 -2.1,-0.31 1.5,0.59 -1.22,0.91 h -0.59 l 1.22,0.91 -1.5,0.28 0.59,1.22 1.19,-0.6 -1.78,1.19 0.28,1.19 1.22,-1.19 -1.22,2.09 4.22,-2.09 -5.13,3.59 0.63,1.22 2.37,-0.9 -2.09,1.78 1.81,0.31 -0.9,0.91 -1.5,-1.22 -0.32,2.12 2.72,3 3,-0.31 3.91,-3.91 2.09,0.6 1.19,-3.6 0.31,6.6 h 1.19 l -0.59,2.12 1.18,-1.81 -0.87,2.69 2.37,5.12 -1.5,1.19 0.63,4.19 3.59,0.31 1.78,-3.59 3,0.59 2.41,-6 -0.28,-4.5 1.19,0.31 -1.82,-0.9 3.32,-0.6 0.31,-1.81 0.59,1.81 2.1,-2.12 -1.5,-0.6 2.4,-1.18 -2.4,-3.91 -2.1,-0.31 1.5,-9.88 1.19,1.19 3.91,-3.31 1.5,-1.19 1.81,-2.69 -0.91,-3.62 1.19,0.62 -0.28,-2.4 1.5,0.9 0.28,-1.5 h 3.59 l 2.13,3.28 -8.41,9.6 1.5,5.72 -0.59,3.59 2.69,1.81 1.18,-0.9 -0.28,2.4 12.91,-4.81 0.28,1.81 4.22,1.19 -5.13,1.19 -0.28,1.81 -5.4,-0.91 -5.1,2.41 0.91,3.59 h 2.09 l -0.31,4.82 -1.78,1.18 -2.72,-3.28 -2.41,0.88 -1.78,4.5 0.47,3.84 -1.37,2.78 -1.5,0.6 v 1.18 h 1.18 l -1.18,0.6 -1.82,1.5 1.5,-2.1 -3,1.5 -2.37,-2.4 -9,3.31 -0.31,1.81 -4.19,-3.9 -6,1.78 0.87,-2.1 -2.68,0.32 -1.5,-2.72 0.9,-3.6 4.19,-3 -2.09,-1.5 2.09,-4.18 -5.69,2.09 -2.72,10.19 1.22,-0.28 0.6,1.78 -1.19,0.62 3,3.88 -3,-2.1 -0.91,2.41 -1.22,-1.81 -2.37,0.31 0.59,1.81 -4.22,-1.5 -1.78,1.19 0.91,2.41 -1.81,1.18 -0.91,-3.28 -3,4.19 1.5,1.5 h -3.59 l 2.09,1.19 -7.78,0.9 -0.63,3 -1.18,0.6 -4.82,2.4 -4.78,-3 v 5.1 l -3.9,-0.28 -0.6,-2.1 -5.4,0.6 1.5,1.5 -1.5,-0.6 v 2.38 l 5.4,3 0.6,4.81 1.81,1.19 -1.22,2.72 0.31,0.9 -4.22,9.28 -16.78,-4.78 -1.5,-2.12 -6,1.81 1.19,3.91 -3.91,9.59 -4.18,5.41 1.81,-0.32 -1.5,2.1 1.78,0.62 h -0.59 l -2.41,6 7.22,0.88 2.69,7.22 5.09,-2.1 7.81,1.78 3.28,-3 2.72,0.32 1.5,-3.32 1.78,-0.9 1.19,-0.28 -0.59,-1.19 v -0.03 l -0.88,-0.88 0.91,-3 0.87,-0.62 4.5,-4.5 8.13,-2.38 v -4.5 l 1.78,-1.81 2.72,-0.91 6.59,3.6 9.6,-5.38 4.5,2.69 2.09,7.5 15.31,12.31 1.78,5.38 -2.37,3.9 1.5,0.6 2.09,-4.19 2.41,-0.91 -2.41,-3.59 1.5,-3 3.28,0.59 1.82,2.41 0.59,-1.5 -9,-6.59 0.91,-2.1 -4.82,-0.62 -3.28,-7.5 -3.9,-3.28 -0.32,-5.41 4.5,-1.5 0.91,4.81 2.41,-2.4 4.18,8.4 3,0.88 3,2.72 -2.37,-0.91 6,2.41 2.69,3.28 -1.19,6.62 2.69,3.28 2.68,3.6 1.5,-0.6 -1.5,1.22 1.5,2.1 7.82,0.59 -1.19,1.19 -5.72,-1.19 -0.91,1.81 2.13,4.78 1.78,-0.9 1.22,3 0.59,-2.1 2.1,1.82 -1.82,-5.41 3,0.59 -2.09,-2.09 2.09,-0.91 1.82,1.82 v -2.41 l -5.69,-3 1.78,-0.91 -0.28,-1.5 1.5,0.6 -3,-6 1.19,-0.6 3.9,3 -0.9,-1.78 2.4,0.88 -2.72,-2.69 5.13,-1.5 6,1.19 -2.13,3 4.5,-4.5 5.13,-0.6 -5.13,-6.28 -1.18,0.28 3.59,-5.68 0.31,-6.91 0.6,1.5 2.09,-1.19 -0.59,-4.5 0.47,0.94 -0.16,0.25 0.19,-0.22 0.09,0.22 0.38,-0.72 1.71,-1.97 0.63,-2.12 3.59,-2.1 1.78,1.82 -3.28,-0.32 1.78,0.6 -0.59,0.9 6,-0.28 0.31,1.5 -3.31,2.38 2.09,-0.28 1.22,3.9 2.1,0.6 7.86,-6 -3.68,0.9 h -1.78 l -2.09,-2.4 1.78,-3 -0.28,2.09 2.37,-3 9.68,-4.81 -1.3,3.31 -2.7,0.31 2.1,1.5 -1.5,4.5 -2.6,1.5 12.5,5.69 5.7,2.41 2.1,3.59 -0.9,2.41 -3.6,3 -0.3,0.28 -5.7,1.22 -6.8,-0.32 -5.46,-3.28 -5.72,1.19 -6.59,5.09 -7.19,0.32 0.6,1.78 2.4,0.31 -3.31,0.59 v 1.5 l -7.78,0.32 -2.13,2.4 -0.28,2.1 3.28,-0.6 -0.59,4.5 1.81,0.6 -1.81,0.9 -0.91,-1.81 -0.59,2.09 3.91,1.22 -0.91,1.5 2.41,1.78 -1.19,1.22 3.87,-0.62 -3.28,2.12 3.91,-1.22 4.78,3 2.72,-0.59 0.59,-3.31 h 2.1 l 6.31,3 4.19,-1.5 2.06,-3 2.8,0.62 2.6,-1.81 -0.6,6 1.8,4.81 -4.5,15.88 -8.07,2.72 -1.19,-2.41 -3.31,0.31 -7.5,4.5 -8.69,-2.4 h -6.9 l -1.19,-1.82 -6.63,-0.59 -0.87,-2.41 -5.41,-1.18 -6.59,3.59 v 6.31 h -0.31 l -4.19,2.69 -4.5,-3.31 -8.41,-2.38 -2.09,-4.81 -6.91,-2.69 h -4.22 l -7.78,-5.4 -0.59,-1.82 4.78,-4.5 -2.09,-4.5 2.4,-4.18 -2.4,1.5 -2.1,-3.32 -7.22,1.5 -5.37,-1.78 -4.22,1.5 -5.09,-2.12 h -10.5 l -4.5,2.4 -3.32,-0.28 -4.18,2.1 -3.32,-0.91 v -1.5 l -6.28,-0.59 -1.81,-3.91 h -1.78 l -5.13,7.19 -10.5,3.9 -3.28,4.5 -0.9,6.32 -0.32,0.28 -2.68,2.4 -5.69,3 -5.41,-0.28 -4.22,4.78 -3.28,0.91 -3.31,6 -4.5,2.41 0.91,-0.32 -6.91,7.5 -1.19,3.91 0.91,-0.91 1.5,5.1 -2.13,3 0.63,7.81 -3.63,8.09 -4.18,2.41 3,5.41 -0.32,2.09 3.63,0.91 h -3 l -1.22,-1.5 -0.91,3.59 2.13,0.91 -2.13,-0.32 2.72,1.5 -1.5,0.6 1.78,1.22 -0.28,0.9 3.91,0.6 h -2.41 l 1.78,1.18 -2.09,0.6 0.91,1.81 1.18,-0.31 -0.59,0.9 h 1.5 l 0.59,3.91 1.5,1.81 1.82,1.5 -0.91,0.88 1.5,1.22 0.31,3.59 1.19,0.31 h -1.78 l 3,3.88 -0.31,1.5 5.09,4.22 9.59,11.4 5.13,3.6 5.69,-0.91 9,1.19 8.68,4.5 9,-1.5 6,-1.19 11.13,0.31 -2.13,0.6 4.82,0.9 2.68,2.69 1.5,-0.59 -1.5,0.9 2.13,0.88 -1.5,-0.28 0.87,0.9 1.22,-0.31 -1.5,1.19 3,3.9 3.28,0.32 v -0.91 l 0.63,0.91 -0.31,-1.22 0.9,1.22 0.28,-1.22 1.22,1.22 4.5,0.28 -0.31,-1.78 1.5,2.09 1.22,-0.91 1.78,3.32 2.41,-0.32 0.31,1.22 h -1.22 l 2.09,3 -3,7.19 1.5,0.59 v 2.41 l -1.78,-0.59 3.28,1.78 -2.37,0.31 -0.63,-1.5 -1.18,4.19 -1.82,-0.6 4.22,6.91 9.91,8.41 2.09,4.78 2.41,1.22 -1.81,0.28 5.4,8.12 -1.81,2.1 1.81,3.28 2.41,3.31 -0.91,3.91 -5.09,3.28 -3,6.9 0.59,6.32 12.6,12.59 2.68,9 9.91,8.09 4.22,3 0.59,1.5 -1.81,0.6 2.09,2.4 1.5,-0.28 4.82,1.19 9.9,-1.5 h 9 l 8.69,-1.5 12.59,-5.09 3.91,-2.72 1.81,-1.19 5.1,-2.41 3.36,-5.68 -0.7,0.59 -1.16,-0.59 13.46,-6 0.9,-4.82 -3,-3.59 0.3,-2.41 0.9,0.32 6.6,-3.6 2.7,-3.31 13.5,-6.59 0.9,-0.6 4.2,-5.12 -1.2,-5.38 0.9,-0.9 -0.6,-4.22 1.5,-2.38 -2.7,-0.62 -1.2,-0.6 -1.5,-5.4 0.9,-1.78 -1.2,0.28 1.8,-3 -3.3,-2.69 2.1,-5.41 3.6,-6.28 0.9,-1.5 3.6,-2.72 -0.9,-0.9 2.4,-0.6 9.9,-12.28 10.2,-9.62 8.2,-10.5 10.1,-24 v -2.38 -1.5 l 1.9,-1.22 -1.6,0.6 0.6,-6.28 h -2 l -5.2,4.78 -8.4,3.31 -3.6,3 h -2.7 l -5.1,3.59 -6.3,-3.59 -2.7,0.91 3.3,-2.72 -0.3,-2.1 -9.9,-7.18 -4.5,-0.32 -0.9,-1.5 -0.6,-0.59 -0.6,1.81 -6.3,-12 -5.1,-2.72 -2.4,-10.18 0.9,0.59 -2.4,-4.19 -5.4,-3.31 -1.2,-4.19 1.2,-0.31 -3,-2.09 -8.1,-14.41 -4.47,-4.81 -0.91,-4.5 3.68,6 4.4,3.31 2.1,-8.69 -0.9,6.88 2.7,-0.28 9.7,11.68 1.4,3.6 4.6,2.12 3.5,5.69 0.9,5.69 3.9,2.4 3.7,2.41 9.5,11.41 0.3,6.59 4.8,10.19 6.6,-2.1 2.1,-3.28 12,-6.9 2.4,-3.32 10.5,-8.09 0.6,-3.91 9,-6.28 0.9,-3.9 3.3,-2.1 1,-4.22 3.2,-2.68 -1.2,-5.41 1,-2.09 1.1,0.28 2.4,-9.88 -4.8,-3.9 -6,0.59 -2.4,-1.5 -2.7,-4.5 v -3.59 l -6,13.18 -5.4,1.82 -1.5,2.09 -3.3,-0.91 -0.6,-7.5 -2.1,0.6 0.3,5.72 -3.9,-4.5 -0.3,-3.32 -5.7,-2.68 -4.8,-6.91 -1.2,0.31 1.5,-1.22 -1.2,-2.09 h -0.3 l 3.3,-0.91 v -1.78 l 2.4,0.88 1.8,-1.19 0.6,0.59 6.6,7.82 h 4.2 l 5.4,2.4 4.2,-0.62 5.4,-5.69 4,5.09 9.5,-2.09 6,-1.5 13.5,-10.81 1.8,3 1.8,-0.88 1.8,3.28 2.4,-1.78 0.6,1.78 0.9,-2.4 -0.6,2.12 3.3,1.5 3.3,-3 -0.3,2.38 -3,3.31 7.5,3 2.7,-4.5 -0.9,-5.09 1.5,-1.22 -0.6,2.12 0.6,1.19 0.9,-0.91 -0.3,2.41 1.6,1.5 0.5,4.5 6.6,13.81 10.9,15 1.7,3.6 1.5,3.59 3,1.19 1.2,-2.38 v -3 l 2.1,-3.31 h -0.9 l 0.3,-2.66 v -0.03 h 0.1 v -1.5 l 1.4,-1.5 -1.4,-5.12 v -4.5 -3.6 l -2.5,-6.28 -0.3,-3 1.5,-1.81 v -3 l 2.1,-3.59 -0.6,-1.82 2.1,-9.59 0.3,-6.31 1.5,-5.38 v -4.81 l -1.1,-2.09 0.8,-3.32 -0.3,-2.68 1.2,2.09 v -3 l 1.3,0.91 -0.7,-1.82 0.9,0.91 -0.2,-2.09 0.8,0.28 -0.8,-2.38 1.4,1.5 -0.9,-3.9 1.2,2.09 v -1.19 l -1.2,-1.81 1.2,-2.09 6,6.9 -0.3,-2.4 0.6,2.09 1.2,-1.19 1.2,1.5 -0.6,1.5 1.5,0.6 -0.6,-2.41 3,5.69 1.8,7.22 v -2.1 l 0.3,2.1 v -1.5 l 0.9,0.59 -0.3,-2.09 0.9,0.59 -0.6,-2.41 0.6,-2.4 -0.9,-0.88 0.9,0.28 v -2.4 l -0.9,-2.38 1.8,2.38 0.3,-1.19 2.1,6.31 1.8,4.19 -0.3,-1.81 1.9,3 0.5,4.22 0.6,-0.32 0.3,5.1 0.9,2.4 -0.3,-1.78 0.3,1.5 0.9,7.78 0.3,-1.5 2.1,2.72 0.3,0.28 1.2,7.5 1.2,3.6 h 1.5 l 0.3,-2.69 -0.6,-3.31 -0.6,-6.6 -0.3,-2.09 -1.8,-1.5 -0.9,2.09 -1.5,-5.09 -0.6,-1.81 -0.3,2.12 -0.6,-2.93 0.1,-0.07 -0.4,-1.22 -0.9,-9 -0.3,-0.59 v -0.59 l -0.3,-0.6 -0.9,-2.72 0.6,-3.28 0.9,3.6 0.6,-2.72 1.2,-0.28 1.5,3.59 -0.3,-2.41 0.6,2.41 V 606 l 1.2,-0.59 0.9,5.4 0.3,-1.22 -0.3,-4.78 -0.6,-1.5 h 0.6 l -0.6,-1.22 v -0.28 h 0.3 v -0.31 l -0.3,-0.31 0.3,-0.6 h -0.3 v -0.9 l -0.3,-0.88 0.3,-0.62 -0.6,-8.38 -1.2,-5.4 v -0.91 l -3,-8.09 -1.2,-1.82 -1.2,0.6 -3.3,-3.6 -1.5,-4.18 -0.3,-3.32 -0.9,-1.5 0.4,-0.59 -0.7,-0.59 v -1.82 l -0.6,-3 v -2.09 l -0.6,-1.19 h 0.9 l -0.6,-2.4 0.3,0.28 1.3,2.72 0.8,1.78 v -0.88 l -1.8,-4.5 0.3,0.6 -0.6,-4.22 -0.6,-1.19 v -1.19 l -0.3,-1.22 v -0.9 l -1.2,-2.38 0.9,1.19 -0.5,-1.5 h 0.2 l -1.8,-2.69 1.6,0.28 -0.7,-0.59 -0.6,-2.41 0.3,0.6 -0.9,-2.1 h 0.6 l -0.9,-3.28 -0.8,-1.5 h -0.4 l -0.6,-2.72 -0.6,-1.18 h 0.3 l -1.5,-3 h -0.2 l -0.7,-2.41 -0.6,-0.91 -0.3,-0.87 -0.6,-0.91 v -0.9 l -0.8,-1.5 h 0.2 l -1.5,-2.1 -0.9,-1.81 -0.6,-0.59 v -0.6 -0.31 l -3.3,-5.69 h -0.3 l -1.2,-3 -0.6,-0.62 -0.9,-1.5 h -0.3 l -0.6,-1.5 -0.6,-1.19 0.6,1.5 -1.5,-2.69 v 0.6 -0.6 l -0.3,0.6 1.2,3 -3.3,-6.32 h -1.2 l -0.6,-2.4 h -1.2 l -3.9,-3.6 -0.2,0.32 v 0.03 0.87 l -1,-0.9 -2.4,-3.91 -0.9,-1.19 -0.6,-0.31 -0.3,-1.19 -1.2,-1.5 -2.1,-3.62 v -0.88 l -1.8,-1.81 0.3,3.31 1.5,2.38 0.1,0.06 1.4,2.66 -2.7,-2.1 v 1.78 l -2.1,-1.78 -0.9,-3 -3,-4.5 -3,-3.9 -1.5,-2.41 1.5,0.59 3.9,4.82 -0.6,-1.5 2.7,3.59 -5.3,-8.41 -1.3,-3.28 2.7,3 0.3,-0.62 0.9,1.5 1.5,1.81 -0.6,-1.19 0.9,1.19 -0.9,-1.81 -0.3,-1.19 2.4,1.81 h -0.3 l 1.2,1.78 0.6,0.32 -0.9,-0.91 1.5,1.19 -0.6,-0.88 3.6,4.19 0.9,0.59 0.3,0.91 h 0.6 l -2.1,-2.69 0.6,0.6 -1.2,-1.5 0.3,0.28 -0.9,-1.19 -0.3,-0.59 -1.2,-1.82 -0.3,-0.59 -3,-3.59 -2.7,-2.1 -3,-1.81 -0.6,0.59 -1.5,-1.5 -5.6,-6.9 -2.8,-2.1 -2.7,-3 -1.2,-0.9 -0.3,-0.6 -3,-2.68 0.3,-1.22 -5.3,-5.38 -12.7,-10.22 -9.9,-6.9 v -0.03 l -1.8,-1.16 -3.3,-1.5 -2.4,-0.91 -6,-3.59 -2.1,0.31 -0.3,-0.62 -1.2,-0.88 -0.6,1.19 -0.3,0.31 1.6,1.5 1.1,0.28 3,2.41 -3,-1.5 3,2.09 -3,-1.18 1.5,1.78 -0.6,0.31 -8.7,-6 -6.3,-3.31 -8.7,-4.5 -5.1,-3.88 0.3,-0.31 -1.5,-0.59 -3,-2.72 -2.4,-0.6 -3,-3 2.4,1.5 0.6,-0.28 -7.5,-4.22 -0.6,0.32 1.5,0.9 -1.2,-0.31 -9,-2.69 -6.6,-2.72 -0.6,-0.28 1.8,0.28 h 1.6 l -1,-0.59 1.5,0.31 -6.5,-1.81 -1.9,-0.59 h -2.1 l -2.7,-0.91 -0.6,-0.59 2.4,0.9 h 4.2 l 4.5,1.5 6.9,1.78 6,1.82 3.3,1.5 4.8,1.5 4.8,1.18 9,1.5 -7.8,-3.28 -1.5,-0.31 -3.6,-1.81 h -0.9 l -0.3,-0.28 h -0.5 -0.7 v -0.32 l -6,-2.4 -3.3,-0.28 -2.7,-1.22 -1.2,0.31 -2.4,-0.59 2.4,1.18 -8.4,-1.78 -1.7,-0.62 v -0.28 l -4.6,-0.91 1.6,-0.31 -2.8,-0.28 -4.8,-1.82 -0.9,-0.59 -1.5,-0.31 -8.4,-1.5 -8.65,-1.5 -3.63,-0.88 h -1.5 v 1.5 h 0.32 l 0.59,0.6 3,0.59 h -0.59 l 2.09,0.59 -8.41,-2.09 h -1.18 -2.1 l -0.9,0.91 -1.82,-0.32 1.22,-0.9 -3.59,-0.6 h -0.03 l -1.19,-0.9 -3,-0.88 h -0.91 V 366 h -2.09 z m -88.19,11.69 h 1.19 l -5.41,3.62 -0.28,0.28 -1.5,0.6 0.6,-0.88 h -0.32 l -0.28,-0.31 -2.12,1.19 -0.28,0.9 -2.72,-0.59 3,-1.5 h -1.5 l 0.31,-0.31 0.91,-0.88 0.9,0.6 0.91,-1.22 2.69,-0.88 -0.6,1.19 1.5,-0.59 -2.09,1.18 3.28,-1.18 1.81,-1.22 z m 16.78,3.9 -1.18,0.6 h -4.5 l -1.82,1.81 0.91,0.59 v 0.32 l -0.31,3.59 4.22,-0.59 0.87,-0.91 1.5,-0.31 2.41,-0.28 2.72,-1.82 h -2.72 l -2.1,-3 z m 109.18,0 1,0.6 -1,-0.28 v -0.32 z m 5.7,2.29 3,0.43 3.3,1.78 -3.3,-1.5 h -0.9 l -2.1,-0.71 z m -133.47,1.03 -4.81,2.09 h -2.1 l -3.9,3.31 0.31,2.1 -3.59,0.9 -2.72,2.69 2.4,-0.31 -0.9,-0.6 2.72,-0.28 -1.5,0.6 0.59,0.9 -1.5,0.6 h 1.19 0.59 l 6.31,-2.72 h 7.19 l 3,-0.6 0.63,-1.18 -6,-0.32 6.87,-0.9 0.63,-0.28 -2.72,0.28 1.5,-0.6 -0.91,-0.28 1.22,-0.62 0.59,0.62 2.41,-0.62 0.28,-1.5 2.41,0.62 1.5,-3 -1.5,-0.9 -1.78,0.9 -0.32,-0.62 -3,2.12 2.1,-2.4 h -2.1 l -3.9,2.68 -3.91,1.5 5.72,-4.18 h -0.31 -2.69 z m 131.97,5.4 5.8,1.5 h -0.4 l -5.4,-1.5 z m -14.38,1.78 1.78,3 1.8,-0.9 -0.6,-1.19 -2.98,-0.91 z m 2.98,3.32 v 2.68 l 2.7,0.32 -0.6,0.28 -0.9,0.9 3.6,0.91 2.4,-0.91 -1.2,-1.18 -2.7,-2.1 -2.4,0.88 2.1,-0.88 -3,-0.9 z m 9,0.28 -0.9,1.22 3.3,1.18 h 0.3 l -1.5,-2.09 -1.2,-0.31 z m -131.66,0.31 -6,1.81 -1.82,0.6 -0.59,0.59 h 0.91 l -0.32,0.91 3.6,0.59 2.4,-1.5 1.82,1.19 2.37,-2.1 h -2.37 -0.32 l -0.59,-0.28 h -0.59 l 2.68,-1.5 -1.18,-0.31 z m -26.1,0.59 -1.5,1.5 -1.22,1.5 v -1.18 h 0.32 l 2.4,-1.82 z m -6,1.22 -0.59,0.88 -2.41,3 v -1.5 l 2.1,-1.5 0.9,-0.88 z m -8.72,1.5 h 1.22 l -1.5,0.28 -0.28,0.1 0.56,-0.38 z m -9,1.78 h 0.91 1.5 l -0.28,0.91 -1.22,-0.59 -2.41,0.59 1.22,-0.59 0.28,-0.32 z m 63,0 -3.59,0.6 -0.59,1.22 -6.32,0.59 -3,1.5 1.19,0.91 -2.37,0.59 -0.91,3 h 1.5 l -2.41,1.5 0.91,0.91 h 0.91 l 0.28,-0.32 0.9,0.32 0.32,-0.32 h 1.18 l 1.5,-1.18 -0.59,-3.32 2.09,-1.5 h -0.9 l 2.72,-0.59 -0.32,-0.91 0.91,0.6 1.19,-0.88 -0.91,1.5 1.81,-1.22 0.6,0.32 v -1.5 h 2.09 l 1.81,-1.82 z m -21.31,0.32 0.91,1.18 1.81,-0.59 -1.22,1.81 3.91,1.19 3,-3.59 h -8.41 z m 207.89,0.9 0.9,0.88 h 1.2 l 2.4,1.5 3.6,1.5 3,0.62 3.6,1.5 12,6.28 -3,-2.09 -0.9,-1.19 -2.1,-0.31 -4.8,-2.69 -2.1,-1.81 0.6,-0.31 -3,-0.6 -3,-0.59 -8.4,-2.69 z m -20.4,2.1 5.4,1.4 -5.3,-1.12 -0.1,-0.28 z m 0.1,0.47 0.5,1.93 h -0.3 l -0.2,-1.93 z m -171.09,0.12 -1.19,0.91 h 1.82 l -2.41,0.59 h 1.5 l -1.81,0.59 h 1.5 l -2.1,0.91 1.5,0.31 -1.5,0.88 1.82,-0.28 -2.1,0.9 2.1,-0.62 -3.6,1.5 0.6,0.62 h 0.9 l 0.28,-0.31 h 2.41 l 0.59,-1.19 2.41,-0.31 -1.19,1.19 h -0.03 l -0.87,0.9 h 2.68 l -0.28,1.5 1.19,-0.9 0.59,1.22 0.91,-1.22 v 1.22 l 2.69,-2.41 -0.6,2.09 1.82,-1.78 0.28,2.38 1.81,-0.88 -0.91,1.5 1.82,0.28 0.59,-0.9 v 0.9 l 1.5,-0.28 -0.91,0.6 5.1,1.5 -1.78,-2.1 2.09,0.88 0.91,-1.19 -0.32,1.5 2.1,1.19 h 1.81 l 1.78,-1.19 -1.19,-1.5 1.82,0.59 0.87,-3.9 -0.87,-0.88 -0.63,-0.9 -3.28,0.9 2.69,-1.81 -0.91,-0.59 -1.78,0.59 1.78,-1.19 -1.19,-1.5 -0.9,0.88 -0.88,-0.6 v 1.5 l -1.5,-1.18 V 408 l -0.62,-2.09 -1.78,0.9 1.5,2.1 -1.22,-1.22 -0.88,-0.28 0.88,1.18 -0.6,0.6 -0.9,-0.6 v 0.91 l 0.9,0.59 2.41,1.22 -2.41,-0.9 -0.31,1.18 -0.87,-1.5 -0.63,-1.5 -3.87,1.22 3.59,-1.5 0.91,-1.22 -6.32,1.5 V 408 l -0.31,1.5 -0.59,-0.91 -1.5,0.6 2.09,-1.5 -0.28,-0.88 -2.72,-0.31 0.91,0.91 h -1.5 l 2.09,0.59 h -4.78 l 1.78,1.19 -3,-0.88 3.63,-2.4 -3.32,0.9 -1.81,-1.81 z m -21.59,0.59 -2.41,2.72 -0.59,1.5 3.31,-1.22 3.28,-0.28 3.91,0.6 1.22,-1.22 -1.82,-1.78 -6.9,-0.32 z m -57.28,0.32 -0.32,0.9 1.82,-0.62 -1.5,0.62 v 0.28 l -0.32,-0.28 -0.28,0.28 h -0.31 l -0.28,0.32 -2.13,1.18 1.22,-0.9 2.1,-1.78 z m 256.16,0.18 2.7,0.72 0.3,0.6 -0.6,-0.6 -2.4,-0.72 z m -257.07,0.1 -0.59,0.9 -1.19,0.6 -0.91,0.62 -4.22,1.5 3.91,-1.5 0.59,-0.31 1.5,-1.5 0.91,-0.31 z m 56.41,0 -2.72,0.9 -1.78,0.91 0.59,1.19 -2.41,0.62 -0.31,0.28 v 0.6 l -0.28,0.31 -0.31,0.59 v 0.32 l -0.28,0.59 v 0.31 l -0.32,0.6 v 0.28 l -0.31,0.31 0.91,-0.31 -1.19,1.5 v 0.31 l -0.31,0.31 v 0.6 l 1.81,-0.91 h 1.19 l -3.28,1.81 -1.22,0.6 0.9,0.28 h -1.5 v 0.9 l -2.09,1.22 -2.09,-0.62 1.18,0.9 -2.4,1.82 0.62,0.28 -6,3.62 -2.12,-0.31 -0.6,1.19 0.32,-1.19 -2.41,-0.91 -3,2.1 -0.59,-2.38 1.18,-2.12 -4.18,0.62 -0.91,4.5 2.09,-0.9 -2.4,2.09 1.22,-0.31 -3.32,2.12 -1.18,2.1 -0.6,-0.91 -1.5,1.19 -4.5,9.31 7.19,-7.19 -1.5,2.38 1.5,-1.19 -4.19,6 4.78,-2.69 -2.09,2.1 3,-1.82 1.19,-1.78 0.62,0.6 1.78,-1.5 -1.18,-0.32 1.78,-1.18 -1.5,0.28 4.22,-2.1 -1.22,-0.59 2.72,-1.19 v 1.19 l 2.4,-1.81 v 1.5 l -2.12,1.5 1.5,0.31 -2.1,0.31 2.1,0.88 -3,-0.28 -3.28,3.9 4.5,-1.81 -1.22,1.5 2.4,-1.5 -0.28,1.5 1.19,-1.81 v 1.5 l 1.19,-1.19 0.62,0.91 1.19,-1.5 h -1.81 l 1.5,-0.6 -0.88,-0.9 h 0.28 l 1.5,-0.32 -1.18,-0.9 1.18,0.31 0.32,-1.19 V 435 l 2.09,-1.5 -0.91,-0.59 h -0.28 l 1.5,-0.91 -1.5,0.31 1.78,-0.62 h -1.18 l 1.5,-0.6 h -0.91 l 1.81,-1.18 -0.31,-0.6 0.91,0.88 1.5,-3.28 v 1.78 l 1.37,-1.1 0.41,0.22 0.59,-1.22 -0.59,2.41 1.22,-0.91 v -2.68 l 0.87,2.4 1.22,-0.31 0.28,-0.31 -0.28,-0.28 v -1.22 l -1.5,-0.6 1.5,0.32 0.91,0.28 -0.63,-1.19 2.13,1.19 1.18,-1.5 -1.5,-0.6 h 1.82 l -3.63,-0.28 2.13,-0.31 -0.32,-0.59 2.69,0.28 -1.78,-1.19 2.69,0.59 1.81,-1.78 -2.72,-0.31 3.31,-0.59 -2.4,-0.6 2.09,-0.31 v -0.59 l 1.81,0.59 -0.59,-1.5 2.41,0.31 1.78,-2.12 -1.5,-0.6 -1.5,1.5 0.9,-1.5 -2.4,1.22 3.59,-2.12 -0.28,-0.28 -2.09,-0.32 h 3.59 l 4.78,-1.78 -0.59,-2.4 -2.1,1.18 0.91,-1.5 -1.81,1.5 1.22,-1.5 -4.5,1.82 1.5,-1.22 -0.63,-0.6 -2.37,1.5 -2.72,0.32 1.22,-0.32 1.5,-3.9 z m 193.46,0.62 h 0.4 l 2.3,4.19 0.9,0.06 -2.7,2.63 0.6,0.34 -2.4,1.16 -9.6,-0.6 -11.4,-4.18 10.5,3.59 9.6,0.91 4.2,-3 -2.4,-5.1 z m 30,1.19 h 0.6 0.6 l 1.8,1 -0.3,-0.09 -0.6,-0.32 -0.9,-0.28 -0.6,-0.31 -0.2,0.31 -0.4,-0.31 z m 3,0.31 1.5,1.5 2.1,1.5 4.5,3.6 1.2,0.59 0.3,0.31 0.8,0.57 -1.4,-0.57 -8.4,-6.62 -0.5,-0.16 -0.7,-0.44 1.2,0.6 -0.6,-0.88 z m -29.1,2.78 3,0.22 5.1,2.69 5.7,6.59 1.2,3.91 0.9,0.91 h 1.6 l -0.8,0.78 -2,-1.69 -0.9,-3.91 -8.3,-7.78 -5.5,-1.72 z m 42.6,0.5 2.1,1.82 1.5,1.18 -0.6,0.91 7.2,4.5 1.8,1.81 0.6,0.28 1.8,1.5 0.6,0.32 -1.2,-0.91 v -0.59 l -2.4,-1.82 -1.2,-1.5 -3.9,-2.68 -4.8,-3.91 -1.5,-0.91 z m 15,12.32 0.6,0.59 0.6,0.31 0.6,0.6 0.6,0.28 -2.7,-2.69 0.3,0.91 z m -21.9,-12 0.3,0.59 -0.3,-0.59 z m -37.7,2.37 2,1.22 -0.3,1.5 v -1.5 l -1.7,-1.22 z m -168.05,0.31 -3.31,2.72 0.59,1.5 -1.5,0.6 v -1.82 l -0.59,1.82 -0.32,-3 -1.78,2.4 -1.22,-0.9 -1.5,1.18 -0.87,1.5 1.5,-0.9 -0.91,1.5 1.78,0.9 -0.59,1.82 -1.19,0.9 -4.81,4.78 h -2.09 l 0.9,0.6 -5.09,2.4 -2.13,2.1 -0.59,-1.19 v 0.91 l -1.59,0.47 -1.69,-0.19 -0.31,2.12 3.9,-1.5 -2.4,1.5 0.59,1.5 -1.78,-0.62 0.87,1.22 -1.78,-0.32 0.91,0.6 -0.91,-0.28 v 1.5 l -0.31,-0.91 -2.41,2.69 0.91,-3 -1.19,-1.5 -1.81,3.31 1.22,2.09 h -0.31 l -3.6,0.91 0.28,1.19 -1.18,0.31 0.59,-1.19 -2.41,1.78 -0.03,-0.28 -1.75,0.28 -0.59,1.5 -0.31,-3.59 -0.32,1.81 -0.28,-1.22 -2.72,0.6 3.32,1.22 -1.19,-0.32 1.5,1.82 -3.91,-2.72 0.91,2.72 -2.13,-2.1 -0.28,2.38 -1.5,-0.88 v 1.31 l 2.69,0.47 v 1.22 l -5.41,-1.5 1.22,1.78 -2.09,-0.9 -1.22,1.5 2.72,0.62 v 0.88 l -3,-1.19 0.59,0.59 -2.4,0.91 1.5,0.59 -1.82,-0.28 -2.09,1.5 h 3.31 l 1.5,-1.5 -2.4,3.6 V 456 l -2.1,-0.91 0.91,1.82 -1.5,-1.5 v 1.18 h -1.5 l 0.59,1.22 -1.22,-0.31 0.63,1.5 -0.91,-1.19 0.28,1.5 -2.09,0.88 h 1.5 l -2.41,0.9 -0.28,1.82 -1.5,0.28 1.19,0.62 h -1.5 l 1.22,0.28 -1.5,0.32 0.28,0.9 -0.91,-0.62 0.63,1.22 -1.22,-0.6 0.91,1.78 -1.82,1.5 3.63,2.1 h -2.72 l 1.81,0.31 -2.09,0.59 1.5,0.32 -1.5,1.18 1.78,-0.28 -2.69,0.88 2.41,-0.28 -2.41,1.5 1.78,-0.6 v 2.1 l 0.91,-2.72 1.22,1.81 0.28,-1.81 1.81,0.31 -0.59,-1.19 0.87,1.19 v -1.5 l 1.5,0.59 -0.28,-0.9 1.19,0.62 -0.28,-0.9 h 1.78 l 0.91,-2.41 0.31,1.19 0.28,-2.1 1.81,1.5 1.19,-1.78 v 1.5 l 0.91,-1.81 0.31,1.19 0.28,-0.88 1.22,0.6 v -1.5 l 0.59,1.5 1.5,-1.5 -0.59,-1.22 1.5,0.9 2.37,-3 0.32,1.22 2.4,-1.22 1.78,1.5 3.32,-2.09 0.31,1.19 -2.13,0.62 v 0.88 l 1.22,-1.19 -0.59,0.91 2.37,0.59 0.91,-1.19 0.91,1.5 6.31,-2.72 h 2.09 l 2.1,-2.4 -0.91,2.4 1.81,1.22 1.19,-0.9 -0.28,1.18 5.09,0.91 8.69,-1.81 -3,-1.5 -0.59,-0.6 -1.82,-0.9 h -0.28 l -0.31,-0.6 -0.59,-0.9 3.59,0.31 -3,-1.81 3.59,-1.19 0.63,1.5 h 2.37 l -2.09,-3 1.5,0.31 v -1.5 l 1.81,4.5 -1.5,3.28 2.41,-0.59 -1.22,1.19 1.22,0.62 0.59,-2.4 2.1,-0.91 -1.19,-0.59 1.78,-0.32 -1.78,-0.28 1.5,-0.62 -0.63,-2.69 -1.78,0.31 1.19,-0.62 -1.19,-0.6 2.1,0.6 0.31,-1.19 h -2.41 l 0.28,-1.5 3,0.59 -2.09,-1.5 1.5,0.32 v -1.22 l 0.31,1.5 h 2.1 l 0.59,-2.1 -0.28,2.1 1.19,-0.6 1.18,1.5 -1.5,-1.18 0.32,2.09 2.68,0.59 1.22,-1.18 -0.59,-1.5 -1.5,1.18 0.59,-1.5 2.1,-1.5 0.9,2.1 0.91,-0.88 -0.63,-0.9 1.5,-0.91 -1.18,-1.19 1.5,0.88 -0.6,-2.1 1.19,2.41 1.81,-1.81 -1.22,-1.5 2.13,0.31 h 0.28 l -1.5,-0.91 0.91,-1.78 2.4,0.88 0.28,-0.6 0.63,-0.28 0.59,-0.62 0.28,-0.6 -0.59,-0.59 h 1.22 l 0.59,-0.59 v -0.6 l -1.81,0.6 1.5,-1.5 3.59,-1.5 1.82,-1.82 0.9,-0.59 h -0.59 l 0.87,-0.91 h 0.63 l 0.59,-0.28 0.28,-0.62 0.32,-0.28 -0.6,-0.32 0.91,0.32 1.19,-1.22 0.9,-0.6 0.6,-0.59 -0.32,-0.59 -5.37,1.78 5.69,-3.6 -4.5,0.32 3,-0.91 -4.19,-2.09 2.09,-0.32 2.69,2.1 3.31,-0.28 -1.81,-1.5 1.81,-0.6 -5.72,-2.12 2.41,-0.28 3.59,1.78 -3.28,-3.6 -3.31,1.22 0.91,-2.12 h -1.82 l 0.32,1.81 -1.19,0.91 v -2.72 l -1.5,2.12 -0.31,-0.9 -2.1,0.9 1.78,-3.31 -3.87,1.81 1.19,-1.81 h -2.1 l 3.28,-1.19 -2.09,-1.22 -2.69,1.82 2.1,-1.5 -0.32,-0.32 -0.28,-0.59 -3.59,0.91 0.59,-0.91 -2.09,0.59 1.78,-0.9 -3.91,-0.88 -1.18,0.6 0.59,1.18 h -5.09 l -0.32,-1.5 -3.87,-1.5 z m -47.41,34.03 -0.09,-0.03 0.09,0.22 v -0.19 z m -0.09,-0.03 -0.5,-1 -0.56,0.82 1.06,0.18 z m -1.06,-0.18 -1.25,-0.22 1.18,0.31 0.07,-0.09 z m 258.81,-31.72 0.2,0.28 1.3,0.94 h -0.2 l -1,-0.72 -0.1,-0.22 -0.2,-0.28 z m -104.66,1.81 1.5,1.19 -2.72,-0.6 6.28,2.72 -1.8,-3.31 h -3.26 z m -7.53,1.19 -3.28,0.31 3.59,3.31 1.82,-0.62 -0.32,-2.1 -1.81,-0.9 z m 116.49,0.09 0.8,0.53 6,5.69 1.9,1.56 1.1,2.03 -1.5,-2.09 -8.3,-7.72 z m -112.27,0.22 -1.5,0.31 0.91,0.6 -1.5,-0.32 1.78,3 3.31,-0.59 0.91,-2.09 -0.63,-0.32 h -0.87 L 995.12,420 h -0.59 z m 23.37,2.09 1.2,2.72 1.2,0.88 -1.5,0.9 2.7,0.6 -1.7,-0.28 -0.4,0.28 -0.9,0.31 -0.3,-0.59 v -0.6 l -1.9,-0.22 -0.2,-0.09 h -0.6 l 2.7,-0.31 -0.3,-2.38 -1.5,-0.31 1.5,-0.91 z m -25.18,0.6 -1.19,1.22 1.78,0.28 0.31,-0.88 -0.9,-0.62 z m 34.18,2.72 h 0.3 l 3,3.59 h 2.1 l -1.8,0.31 1.3,2.38 -0.4,-0.28 -4.5,-6 z m 52.6,1.21 2.9,3.29 -2.6,0.9 2.3,-0.9 -2.6,-3.29 z m 36.1,1.07 1.9,1.62 3,3.6 -4.9,-5.22 z m -332.85,1.9 0.28,0.32 h 0.59 l -1.18,1.18 h -0.32 l -1.5,0.6 2.13,-2.1 z m -6.63,0.32 2.1,2.09 h 0.03 l -0.63,0.91 1.13,-0.57 -1.13,0.85 h 0.32 l 1.18,-0.6 -2.37,3.6 h -0.03 l -2.97,2.4 -1.22,2.1 -5.09,3.62 -4.5,8.1 -3,3.28 -0.32,0.31 -0.87,0.91 -0.91,0.28 h -0.03 l 0.91,-2.1 2.72,-3 -2.41,2.41 -3.91,2.09 -0.59,-0.59 3.59,-3 v -1.5 l 1.5,-0.31 3,-2.38 3,-3.9 -3,1.18 1.5,-1.18 h -0.9 l -5.41,3.59 -2.97,1.81 h -0.03 v -0.9 h 0.03 l 5.38,-4.5 4.22,-2.41 0.59,-0.91 2.69,-0.9 h 0.03 l -1.22,1.5 0.59,0.9 -1.74,3.25 1.74,-1.75 0.91,-1.18 0.91,-0.6 1.18,-3.9 1.82,-1.5 v -0.91 l 1.78,-1.19 -0.28,-2.12 0.87,-0.88 0.91,-0.62 0.9,-1.78 z m 200.1,3.28 -1.19,0.62 0.59,0.28 0.32,0.32 0.28,0.59 v -1.81 z m 0,2.12 -1.78,0.28 1.5,0.91 0.28,-1.19 z m -6.91,0.28 -0.87,3.32 1.78,-2.1 -0.91,-1.22 z m -22.19,5.1 v 1.22 h -1.5 l 0.6,1.5 h 1.22 l 1.5,-0.32 -1.5,1.22 3.28,0.88 2.4,-2.69 -1.81,-1.19 -1.5,0.88 -0.28,-1.5 -0.31,1.81 -1.78,-1.5 -0.32,-0.31 z m 45.91,0.31 -0.59,3.31 -3,1.78 v 1.22 l -1.5,4.5 2.37,1.19 -0.59,2.09 h 1.81 l -1.81,0.32 -0.6,1.78 2.69,-0.6 -0.87,1.82 3,-0.91 -1.82,-1.5 h 1.82 l -1.82,-0.59 h 1.5 l -1.5,-1.22 1.5,0.31 -1.81,-1.81 h 1.5 l -0.28,-1.5 -0.31,-2.38 2.72,-5.72 -2.41,-2.09 z m -48.59,1.19 v 3.9 l -1.5,-3 -0.63,1.82 -1.5,-1.22 1.5,-0.88 -2.69,0.88 1.19,4.81 2.41,-2.09 v 1.18 l 0.9,-0.9 0.91,1.22 -3.91,0.9 0.32,1.19 3,-0.59 -2.41,0.9 1.5,0.88 -2.41,-0.28 1.5,1.78 1.5,1.5 2.41,-6.28 0.91,-0.6 1.5,-0.62 -1.5,-1.5 -1.5,-1.5 -0.63,0.9 -0.87,-2.4 z m -92.69,1.5 2.31,2.09 -0.22,-1.47 -2.09,-0.62 z m 171.85,1.22 6.6,3.9 0.9,0.88 -1.5,-0.28 h -0.8 l -3,-2.41 1.1,1.81 -3.8,-3.87 0.5,-0.03 z m 9.3,0.28 2.4,1.22 -2.1,-0.32 -0.3,-0.9 z m 85.9,0 1.1,0.62 -1.1,-0.59 v -0.03 z m 1.4,0.9 1.2,0.6 v 0.03 l -1.2,-0.63 z m -171.26,1.22 -1.5,0.28 0.87,0.91 0.63,-1.19 z m 1.18,1.19 -1.81,0.31 v 2.38 l 1.5,-0.6 0.31,1.5 1.19,-1.5 -1.19,-2.09 z m -173.68,0.31 -1.19,0.88 -0.31,0.31 -0.32,-0.59 0.91,-0.32 0.91,-0.28 z m -12.6,3.28 v 0.91 0.59 l -0.9,0.91 0.59,-1.19 0.31,-1.22 z m -9.9,4.22 -1.19,1.19 v -0.75 l 1.19,-0.44 z m -1.44,0.53 -0.66,0.66 0.6,1.19 -0.91,3 0.59,-0.88 v 0.6 l 0.32,1.5 -1.19,0.9 -0.63,-0.9 -1.18,-1.82 2.09,-3.9 0.97,-0.35 z m 241.44,0.97 -2.1,0.6 -1.5,0.9 1.19,0.88 -1.19,1.22 1.78,-0.6 -0.9,3.88 1.5,1.22 1.81,-1.22 2.69,2.4 4.48,-1.78 -5.98,-2.72 -1.78,-2.09 v -2.69 z m -217.5,4.5 -2.41,2.1 -1.19,0.9 1.19,-1.22 0.59,-0.9 1.82,-0.88 z m 227.66,3.28 0.9,1.5 h 0.3 l 2.4,0.32 -0.6,-0.6 -0.3,-0.62 h -0.3 l -2.4,-0.6 z m 23.4,4.5 v 1.82 l -2.4,0.9 0.7,2.1 2.3,4.18 4.8,3.6 1.5,3.62 10.2,2.38 8.4,-5.69 6.9,-2.09 0.9,0.28 -6,1.5 -8.4,6.31 2.1,0.59 2.7,3 -2.7,-2.68 -14.4,-3.6 -1.8,-3.9 -4.2,-3.32 -2.7,-3.9 -0.3,-2.38 2.4,-2.72 z m -153.88,6 -0.9,2.72 -0.28,-2.12 -1.22,1.81 -0.88,-0.91 -0.31,0.91 -1.19,-0.31 3.88,2.4 -2.1,0.32 0.91,0.9 -3.91,-1.22 2.72,3.91 -3.62,0.91 2.72,0.9 1.18,1.78 1.19,2.1 3.91,-0.28 h 4.5 l 3.59,-1.82 -0.59,-0.59 1.5,0.31 -0.28,-5.12 1.78,-0.6 -2.1,0.32 -0.31,-1.82 -1.5,1.5 -2.37,-1.5 -1.22,1.82 0.31,-2.41 -2.09,1.19 -0.32,-1.19 -0.31,-0.59 -3.28,2.68 1.78,-3.28 -1.19,-2.72 z m 141.58,0.6 0.6,0.31 -0.6,-0.28 v -0.03 z m 1.2,1.5 0.6,0.31 -0.6,-0.28 v -0.03 z m 1.2,1.5 0.6,0.31 -0.6,-0.28 v -0.03 z m 43.5,1.59 4.2,1.41 1.2,-0.28 2.4,-0.6 7.9,0.88 3,0.9 -5.2,-0.9 -7.5,0.31 h -1.8 l -4.2,-1.72 z m -39,4.13 0.7,0.28 v 0.03 l -0.7,-0.31 z m 1.2,1.5 0.6,0.28 v 0.03 l -0.6,-0.31 z m 87.6,3.59 1.9,0.59 0.2,2.1 -1.8,-0.6 -0.3,-2.09 z m 63,1.19 0.9,0.62 0.6,1.5 -0.3,-0.31 -0.6,-0.59 v -0.03 l -0.6,-1.19 z m -196.78,9.9 2.69,1.5 h -1.5 l 0.63,2.41 -1.82,-3.91 z m -1.18,1.82 1.18,1.18 h -1.5 l 0.32,-1.18 z m -14.1,0.9 5.1,4.78 -2.41,-1.5 0.28,2.1 3,0.31 -0.28,-1.81 1.5,0.62 v 2.38 l -3,2.4 1.5,0.32 -2.41,0.59 -1.5,-2.09 1.82,0.59 1.78,-1.5 -3.91,-2.41 0.63,-1.78 -2.1,-3 z m 217.86,1.07 0.8,1.34 1.3,1.78 v -0.91 l 0.8,1.5 h -0.8 l -1.3,-2.37 -0.3,0.59 -0.9,1.19 -0.3,-1.19 h 0.9 l 0.3,-0.31 -0.3,-0.59 v -0.6 l -0.2,-0.43 z m -201.08,0.43 3,1.19 2.69,5.09 -0.87,1.5 -2.41,-0.28 1.5,-0.9 -3.59,-2.41 -1.5,-2.69 2.09,1.78 -1.22,-2.4 2.13,2.12 0.87,-0.9 -2.69,-2.1 z m -18.59,0.88 0.59,2.72 0.32,-1.82 1.15,0.91 -2.06,3 v 2.69 l 1.78,-0.6 -0.59,2.1 -2.1,-2.1 1.19,-3.59 -0.28,-2.41 -1.22,-0.59 1.22,-0.31 z m 1.19,0.31 1.5,0.59 -0.6,0.88 -0.9,-1.47 z m 225.28,0.91 4.5,9 0.9,2.09 1.5,1.5 -6.6,-12.59 h -0.3 z m -230.97,2.68 h 2.41 v 1.22 l -2.13,0.6 v 1.78 l 2.13,-1.78 -1.47,2.34 1.15,0.94 -1.18,-0.88 0.03,-0.06 -0.66,-0.56 v 0.62 l -0.28,-4.22 z m 16.19,0.91 5.4,3.91 -3,3.59 -4.5,-5.09 2.1,-2.41 z m -53.97,0.59 1.19,1.22 0.9,-1.22 V 513 l -1.81,1.5 -0.59,-1.5 h -0.32 l 0.63,-0.91 z m -29.72,6.32 -1.5,3.28 -1.78,-0.6 -0.31,3.32 -2.41,1.18 2.72,0.6 -4.22,5.4 2.09,-1.78 1.82,-1.22 0.31,1.5 -0.91,-0.28 -2.4,4.19 0.31,1.19 0.28,-0.88 4.81,0.6 -2.4,1.78 0.59,2.12 1.22,-0.62 -1.81,2.72 0.9,1.18 -4.22,-0.28 -2.09,1.5 2.09,-0.31 -0.28,1.81 -4.81,2.1 4.5,3.28 3.31,-1.19 -2.72,2.41 -3.28,-0.91 -5.72,3.91 6,0.9 1.22,-2.12 9.6,1.81 4.5,-0.91 0.28,-0.9 -3,-0.88 1.81,-0.31 3.28,-3.31 -0.59,-2.38 -3.28,-0.62 h -0.32 l 0.91,-2.69 -0.28,-0.59 -1.5,-0.6 2.09,0.28 0.28,-1.78 -2.37,-2.72 -0.31,-6 -3.91,-2.09 3.31,0.31 -1.81,-0.9 2.41,-0.32 3.31,-4.18 -6.31,-0.91 5.09,-3.91 -4.5,-1.18 z m 271.47,0.9 2.1,1.19 -1.2,0.91 -0.6,0.28 -0.3,-1.19 v -1.19 z m -457.16,0.88 -0.59,0.62 -0.31,0.88 -0.32,0.62 -0.59,0.88 -1.19,3.9 -1.81,4.5 -0.59,2.72 -0.6,1.19 -0.59,0.31 -1.22,6.88 0.31,0.9 1.19,-5.4 0.91,-1.5 0.9,-3.88 4.5,-12.62 z m 228.6,2.12 2.37,0.28 -0.87,2.72 -3.91,1.19 0.59,-2.41 1.82,0.32 v -2.1 z m 180.56,1.19 2.4,1.81 h -2.1 l -0.3,-1.81 z m -158.06,0.91 -0.91,0.28 0.91,0.9 1.5,-0.59 -1.5,-0.59 z m -1.5,2.09 0.59,2.41 v 0.28 l 3,-2.69 h -3.59 z m 154.76,0.31 -0.3,2.69 -6.3,3.31 -0.6,4.5 2.7,4.19 -3.6,-2.09 -0.3,-3.6 0.6,-3 6.9,-3.62 0.9,-2.38 z m -161.67,2.38 -2.41,1.5 0.32,2.4 2.09,-3.9 z m -69.91,1.22 -3,1.78 1.82,0.62 -1.82,1.5 -3.87,-1.22 h -0.03 l 0.59,2.1 -2.37,1.22 3,1.78 -3.91,2.12 3.28,0.6 -5.06,0.28 1.47,0.9 -2.1,0.6 2.1,0.62 -2.1,0.6 2.1,0.28 -1.47,0.9 5.37,-0.28 5.1,-0.31 h 0.03 l 2.69,-7.81 3,-1.19 -0.32,-3.59 h -3.28 l 1.47,-0.6 -0.87,-0.9 -1.5,1.5 -0.32,-1.5 z m 44.41,0.9 2.09,0.28 -1.81,0.6 0.31,1.5 -0.59,-1.19 -1.5,0.91 1.5,-2.1 z m 7.78,5.1 -0.87,1.78 -0.63,-1.5 -2.37,0.9 2.09,5.72 v -2.12 l 2.41,-2.38 -0.63,-2.4 z m -6.28,1.78 -0.59,1.81 2.09,0.59 v -2.4 h -1.5 z m 29.31,0.87 0.41,3.35 h -1.81 l 1.4,-3.35 z m -20.03,4.53 -1.5,0.6 1.5,0.62 v -1.22 z m 92.69,1.82 -1.8,3 0.6,2.59 -0.9,-2.31 2.1,-3.28 z m -329.38,2.09 -0.59,2.69 -0.59,1.22 -0.91,3 0.91,-5.41 -0.32,0.31 -0.87,3 v 3.88 l -1.22,3.9 0.59,-0.59 0.63,-0.31 -0.31,6 0.59,-0.6 0.59,-5.09 0.63,0.59 v -1.5 l 0.59,-2.09 0.6,-8.41 -0.32,-0.59 z m 328.28,3.62 2.3,2.07 -1.8,1.22 v 0.28 0.03 l -0.6,7.19 0.3,-7.19 v -0.03 l 0.3,-2.1 -0.5,-1.47 z m 48.5,0.88 -0.3,3.91 0.9,1.78 3.9,1.22 -0.6,1.78 -0.3,3.9 1.8,1.5 -2.4,2.1 v 0.03 l -0.6,0.28 -1.5,-1.19 -3,1.5 -2.7,-4.5 -0.6,-4.81 2.1,-0.91 -1.2,-1.78 1.5,0.28 v -0.87 -0.03 l -0.3,-2.1 h 2.4 l 0.9,-2.09 z m 130.8,0.91 v 4.78 l 0.9,3.9 1.5,2.1 0.3,-0.6 -0.6,-4.18 -1.5,-5.1 -0.6,-0.9 z m -189.6,4.5 -0.6,0.31 h -0.6 l -0.9,0.28 0.9,-0.31 h 0.6 l 0.6,-0.28 z m 36,3.9 1.2,0.88 0.9,5.4 1.8,0.32 -5.4,1.78 -0.3,2.72 2.4,0.9 -3.9,0.6 0.3,1.5 h 2.1 l 3,4.18 5.1,0.32 v 3 l 3,4.18 -1.2,-4.18 1.8,-1.5 5.1,3.59 -2.1,3 -3.3,-1.19 0.6,3.88 1.8,2.12 -0.9,-1.22 2.1,-0.59 1.5,1.81 h -1.8 l 0.6,2.1 0.9,-1.22 1.8,1.5 3.6,9.31 -6.3,3.59 -10.2,-1.5 -3,-5.4 0.9,-2.69 -0.6,-3.91 2.4,-1.78 -3.3,-0.31 -8.4,-7.19 -1.8,-5.4 -0.3,1.78 -3.9,-4.19 0.3,-5.69 3.9,-1.5 0.3,-3.9 4.2,-4.22 5.1,-0.88 z m -362.66,5.69 -0.32,0.59 v 0.82 l 0.32,-1.1 V 567 z m -0.32,1.41 -0.06,0.21 0.06,-0.12 v -0.09 z m -0.06,0.21 -0.22,0.47 v 0.32 l 0.22,-0.79 z m -0.22,0.79 -0.09,0.5 0.09,-0.19 v -0.31 z m -0.09,0.5 -0.22,0.4 v 0.6 l 0.22,-1 z m -0.81,4.9 -0.32,0.6 -0.28,0.59 v 0.59 l -0.59,2.13 v -0.31 l -0.31,3 0.31,-1.57 v 0.28 l -2.41,12.97 -0.31,2.41 v 0.91 l -0.28,1.78 0.28,-1.19 -0.28,2.69 v 0.62 l -0.22,0.19 -0.09,0.09 v 2.1 l -0.32,0.62 V 606 l -0.28,0.59 v 3.32 l -0.31,0.59 v 0.91 1.5 l -0.28,2.09 v 5.69 l -0.31,0.31 v 13.19 0.62 0.28 1.82 0.28 l 0.06,0.5 0.53,8.22 v 0.28 0.62 l 0.59,5.1 0.63,7.18 0.87,5.41 0.32,0.59 0.31,2.1 0.59,1.5 v -1.19 l -0.9,-8.69 -0.22,-1.69 0.22,1.38 1.5,11.09 0.31,0.91 1.19,3.31 0.59,-0.62 0.91,3 0.59,-0.6 0.53,1.22 -1.12,-0.31 -0.91,-3 -0.91,0.59 -0.87,-3.59 -0.31,-0.31 -1.19,-2.38 -0.31,-2.72 -0.6,-0.28 v -1.22 l -0.59,-3.9 v 2.4 l 0.28,0.91 v 1.5 l 0.31,0.59 v 1.5 l 0.28,0.91 v 1.5 l 0.32,0.91 v 0.59 l 0.31,0.91 v 1.5 l 0.28,0.59 v 0.91 l 0.31,0.59 v 0.91 l 0.28,0.9 v 1.5 l 0.32,0.6 v 0.9 l 0.31,0.6 v 0.9 l 0.28,0.6 v 0.9 l 0.31,0.88 v 0.62 l 0.28,0.88 v 0.62 l 0.32,0.88 0.31,0.62 v 0.88 l 0.28,0.62 v 0.88 l 0.31,0.9 0.28,0.6 v 0.9 l 0.32,0.6 0.31,0.9 v 0.32 0.28 l 0.28,0.9 0.31,0.6 v 0.03 0.87 l 0.28,0.63 v 0.59 l 0.32,0.6 v 0.9 l 0.31,0.6 v 0.59 l 0.28,0.59 v 0.32 l 0.31,0.59 v 0.59 l 0.28,0.6 v 0.62 l 0.32,0.28 v 0.6 l 0.31,0.62 v 0.6 l 0.28,0.28 v 0.62 l 0.31,0.6 V 708 l 0.28,0.31 v 0.6 l 0.32,0.59 v 0.59 l 0.31,0.32 0.28,0.59 v 0.59 l 0.31,0.6 v 0.31 l 0.28,0.59 v 0.6 l 0.32,0.62 v 0.28 l 0.59,1.22 v 0.6 l 0.31,0.28 v 0.62 l 0.6,1.19 v 0.31 l 0.31,0.6 V 720 l 0.28,0.59 0.31,0.32 v 0.59 l 0.6,1.19 V 723 l 0.31,0.59 v 0.6 l 0.28,0.31 0.31,0.59 v 0.6 l 0.28,0.62 0.32,0.28 v 0.6 l 0.59,1.22 v 0.28 l 0.59,1.22 v 0.28 l 0.91,1.81 v 0.31 l 0.59,1.19 v 0.31 l 0.63,1.19 v 0.59 l 0.28,0.32 0.59,1.18 v 0.32 l 0.63,1.18 0.28,0.32 v 0.59 l 0.59,1.19 0.32,0.31 v 0.59 l 0.31,0.6 0.28,0.31 0.59,1.19 V 744 l 0.63,1.19 0.28,0.31 0.31,0.59 v 0.6 l 0.28,0.62 0.32,0.28 0.59,1.22 v 0.28 l 0.59,1.22 0.32,0.28 0.59,1.22 v 0.28 l 0.59,1.22 0.32,0.28 0.59,1.22 0.31,0.28 v 0.6 l 0.28,0.62 0.32,0.28 0.59,1.22 0.31,0.28 0.6,1.22 0.31,0.28 v 0.29 l 0.94,1.65 -0.94,-1.53 v 0.19 l 0.28,0.62 0.31,0.28 0.28,0.6 0.32,0.31 0.59,1.19 0.19,0.19 0.4,0.71 0.57,0.85 -0.25,-0.25 0.31,0.65 v -0.31 l 0.59,0.88 1.5,3 0.6,0.59 1.18,2.41 0.63,0.59 0.87,1.81 0.63,0.6 0.28,0.59 0.03,0.03 0.03,0.06 1.16,1.41 -0.63,-0.91 0.63,0.6 1.5,1.81 0.28,-0.31 2.09,2.4 h 0.32 l 0.31,0.91 2.09,2.41 -0.59,-1.22 1.19,0.62 -0.91,-1.81 v -2.69 -0.31 l -1.19,-3.59 0.28,-0.91 -4.5,-15.31 0.32,-0.6 0.9,1.82 h 0.6 l 2.68,-4.82 2.13,-3.28 -0.31,-3.9 -1.82,-6.91 -1.18,-2.41 -3.91,-3.9 -3.91,-7.78 -3.59,-6.91 h -0.28 l -5.13,-5.41 -2.37,-4.78 -2.72,0.28 v -2.4 l 0.59,-0.28 -1.18,-0.91 0.9,-0.31 -0.59,-3.28 -0.91,0.59 -0.31,-2.09 h -0.28 l 0.28,-0.6 h -0.59 l -0.6,-2.12 -0.31,0.31 v -1.5 l -0.28,0.31 -1.81,-4.22 -0.32,0.6 -1.18,-2.38 -0.6,1.78 0.6,1.5 -0.6,-0.28 -0.31,-1.81 -1.19,1.5 0.28,-1.81 -2.09,-2.1 2.72,2.1 0.59,-3 -3.31,-6 -0.59,2.4 v -1.78 l -0.6,0.6 v -2.1 l -0.59,0.88 0.28,-2.38 2.41,-1.22 -0.32,-0.9 0.32,-1.19 -1.19,-3.91 -0.31,-9.59 -0.32,-1.19 -0.28,1.19 -0.59,-5.09 -2.13,-8.72 -3.59,-7.78 -0.59,-7.19 -0.6,0.87 0.6,-3 v -3.87 l -0.6,-4.81 v -1.22 l -0.59,-1.5 0.59,-3 v -3.88 l -0.59,-1.81 v -1.19 l 0.28,-2.4 0.91,1.5 -1.5,-6.32 v 2.41 l -0.91,-2.09 V 605.09 600 l -0.28,-4.81 0.28,-3.28 0.31,-4.22 0.13,-0.85 -0.13,0.57 v -1.5 l -0.56,-1.13 0.84,-3.97 0.32,0.6 0.59,-3 h -0.91 l 0.32,-2.72 -0.32,0.9 0.32,-1.78 z m -0.47,12.03 0.15,-0.65 v -0.35 l -0.15,1 z m 0.15,-1 0.32,-2.03 -0.32,1.5 v 0.53 z m 36.97,189.75 0.53,1.1 0.32,0.31 -0.85,-1.41 z m 0.85,1.41 0.44,0.59 -0.13,-0.28 -0.31,-0.31 z m 0.44,0.59 0.46,0.91 0.6,0.59 -0.6,-0.9 -0.46,-0.6 z m 1.06,1.5 0.59,1.22 0.44,0.44 -1.03,-1.66 z m 1.03,1.66 0.47,0.75 -0.32,-0.59 -0.15,-0.16 z m 0.47,0.75 0.31,0.59 0.44,0.44 -0.75,-1.03 z m 0.75,1.03 0.25,0.35 -0.1,-0.19 -0.15,-0.16 z m 0.25,0.35 0.5,1.03 0.59,0.59 0.31,0.59 v -0.28 l -1.4,-1.93 z m 1.4,2.21 0.28,0.6 0.63,0.62 -0.91,-1.22 z M 710.75,760 v -0.12 l -0.31,-0.57 -0.32,-0.31 0.63,1 z m -31.5,-100.31 -0.31,-2.1 -0.03,-0.09 0.03,0.41 v 1.18 l 0.31,0.6 z m -0.34,-2.19 -0.29,-3.81 -0.28,-3 v 3 l 0.28,0.62 v 2.38 l 0.29,0.81 z m -0.57,-6.81 -0.31,-3.6 v 0.32 0.59 l -0.25,-2.56 -0.03,-0.13 0.28,3 v 1.5 l 0.31,0.88 z m -0.56,-5.25 0.13,0.37 0.12,1.28 -0.09,-1.25 -0.03,-0.15 -0.16,-1.88 v 0.28 l 0.13,1.5 -0.13,-0.59 0.03,0.44 z m 4.16,24.15 -0.6,-2.4 v 0.31 l 0.6,2.09 z m -2.91,-69.09 0.22,-1.41 v -0.28 l -0.22,1.69 z m 3.5,-22.06 v 0.15 l -0.12,0.66 v 0.03 l -0.03,0.06 -0.04,0.04 0.19,-0.94 z m -0.34,6.75 -0.57,3.72 -0.28,1.5 -0.31,1.18 V 591 l 0.59,-3.91 v -0.59 l 0.57,-1.31 z m 228.93,9.72 -3.31,2.68 0.91,4.5 2.4,-2.68 v -4.5 z m -1.5,8.09 -3.9,1.19 -0.28,9.31 4.5,-0.91 1.18,-5.68 -1.5,-3.91 z m -21.9,3.31 -3.28,0.88 1.78,1.81 2.09,-1.5 -0.59,-1.19 z m 71.72,9.28 -1.5,0.6 5.68,3.9 -0.9,-3 -3.28,-1.5 z m -28.22,3.32 -11.69,0.59 0.59,2.09 8.41,4.5 2.69,-7.18 z m 71.38,8.4 -8.07,3.88 3,2.12 3.87,-2.4 -0.9,-1.22 2.1,-2.38 z m -41.38,4.19 v 1.81 l 4.5,0.88 5.4,-0.28 0.6,-1.5 -2.1,1.18 -8.4,-2.09 z m 248.68,12.59 -2.7,4.82 0.9,3 h 1.8 l 1.2,3 0.9,-0.6 0.6,4.5 0.6,0.88 0.3,0.31 0.6,5.41 0.6,1.5 v 0.59 l 0.3,-1.5 v -0.59 l 0.3,-1.82 v 0.32 l 0.9,-10.82 0.3,-1.78 -0.3,1.5 -0.3,1.78 0.3,-2.4 -0.3,0.62 0.3,-3.31 -0.6,1.81 0.3,-5.12 h -0.3 l -0.3,3.31 v -2.69 l -0.3,1.19 -1.2,-2.09 V 648 l -0.9,-1.5 -0.3,-0.31 -1.5,0.62 v -1.5 l -1.2,-1.22 z m -31.5,26.41 -0.6,0.59 v 0.32 h 1.2 l -0.9,0.28 v 1.5 l 0.6,5.4 -0.6,-0.59 1.2,3.31 v 0.28 l 0.3,0.6 0.9,3.31 2.4,-3.31 0.9,-4.78 -2.1,-4.5 -3.3,-2.41 z m -492.21,6.53 0.84,1.88 0.31,1.5 v 0.71 l -0.31,-0.71 -0.28,3.28 v -4.16 l -0.63,-1.53 0.63,1.19 -0.56,-2.16 z m 1.37,4.59 0.38,0.57 0.59,0.31 h -0.59 l -0.38,-0.88 z m 187.56,54.88 2.72,2.41 -0.9,3.9 -0.32,0.6 -0.28,-0.6 -0.59,-1.81 1.78,-1.81 -2.41,-2.69 z m 163.18,2.41 -0.5,0.31 h -1.3 l -0.6,0.28 0.6,-0.31 h 1.3 l 0.5,-0.28 z m -186.86,2.68 4.5,6.32 0.31,0.28 0.87,-4.78 -1.18,11.68 v -1.5 l -0.32,-0.28 -3,-2.12 3,1.81 v -1.5 l 0.32,-0.59 v -1.5 l -1.19,-0.32 h 1.19 l -3,-0.59 2.68,-0.31 -3,-2.1 -0.59,-2.4 -3.28,-0.6 3,0.32 -0.31,-1.82 z m -137.69,23.79 v 0.21 l 0.28,0.32 -0.28,-0.53 z m 225.28,13.71 -2.09,11.1 3.31,-5.69 7.19,-3 0.9,-0.59 9.94,-0.57 -10.84,2.07 -3.32,0.59 -4.18,2.41 0.31,3.28 -10.5,7.81 -0.31,3.31 -0.32,-3.31 7.5,-6.31 2.41,-11.1 z m 20.09,1.22 9.91,5.38 -10.44,-5.35 0.53,-0.03 z m 117.58,30.28 -2.7,2.41 v 2.69 l -2.4,2.12 h -1.5 l 0.3,1.78 -1.2,0.32 -1.4,2.87 0.2,-1.09 -2.1,1.81 0.6,0.91 -1.5,0.59 0.6,-1.19 -2.1,1.5 -0.3,1.5 -1.2,-0.62 -7.2,3.62 -3,4.19 0.9,6.31 -5.1,4.78 -1.8,2.72 1.2,6 h 3.3 l 8.7,-3.62 14.4,-20.69 0.9,-2.69 1.8,-1.81 v -3.59 l 0.9,-0.6 0.9,1.19 1.5,-2.09 -0.9,-6.6 -2.4,-1.5 0.7,-1.22 h -0.1 z m -64.8,7.22 2.1,1.5 1.8,4.5 -1.5,3 1.8,5.69 -3,-0.31 -1.8,-5.38 1.5,-2.12 -1.2,-5.1 -0.3,-0.9 h 0.3 l 0.3,-0.88 z"
                 transform="matrix(0.8,0,0,-0.8,-469.94,792)"
                 id="path2652"
                 style="fill:#4ed052;fill-opacity:1;fill-rule:evenodd"
                 inkscape:connector-curvature="0" /></g><path
               d="m 885.30682,273.50903 a 90.201619,90.147738 0 1 0 -180.40123,0 90.201619,90.147738 0 1 0 180.40123,0 z"
               id="path4571"
               style="opacity:0;fill:#000000;fill-opacity:1;fill-rule:evenodd;stroke:#b7b7b7;stroke-width:0.67808235;stroke-linecap:round;stroke-linejoin:round"
               inkscape:connector-curvature="0" /><g
               transform="matrix(2.4011,0,0,-2.4011,812.06,304.75)"
               id="g3991"><path
                 d="m 52.153,48.375 c 0,4.02 -9.27,7.279 -20.704,7.279 -11.435,0 -20.705,-3.259 -20.705,-7.279 0,-4.021 9.27,-7.28 20.705,-7.28 11.434,0 20.704,3.259 20.704,7.28 z"
                 id="path3099"
                 style="opacity:0.40908999;fill:url(#radialGradient3107)"
                 inkscape:connector-curvature="0" /></g></g></g><path
           inkscape:connector-curvature="0"
           style="opacity:0.1546939;fill:url(#linearGradient4198);fill-opacity:1"
           id="path10955-1"
           d="M 1813.4111,2681.493 C 2546.2149,2459.1379 2956.3939,1691.6237 2730.3101,971.3225 2505.6676,255.61461 1726.8935,-151.21199 994.0897,71.143212 266.53069,291.937 -148.72988,1061.0394 75.912539,1776.7482 301.99616,2497.0484 1085.8293,2902.2637 1813.4111,2681.493 z" /></g></g></g></svg>