<?xml version="1.0" encoding="UTF-8" standalone="no"?>
<!DOCTYPE svg PUBLIC "-//W3C//DTD SVG 1.1//EN" "http://www.w3.org/Graphics/SVG/1.1/DTD/svg11.dtd">
<svg xmlns:xl="http://www.w3.org/1999/xlink" xmlns:dc="http://purl.org/dc/elements/1.1/" version="1.1" xmlns="http://www.w3.org/2000/svg" viewBox="193 113 746 396">
  <defs>
    <marker orient="auto" overflow="visible" markerUnits="strokeWidth" id="StickArrow_Marker" stroke-linejoin="miter" stroke-miterlimit="10" viewBox="-1 -3 7 6" markerWidth="7" markerHeight="6" color="black">
      <g>
        <path d="M 4.8 0 L 0 0 M 0 -1.8 L 4.8 0 L 0 1.8" fill="none" stroke="currentColor" stroke-width="1"/>
      </g>
    </marker>
  </defs>
  <g id="Canvas_1" fill-opacity="1" stroke-opacity="1" stroke-dasharray="none" stroke="none" fill="none">
    <title>Canvas 1</title>
    <rect fill="white" x="193" y="113" width="746" height="396"/>
    <g id="Canvas_1_Layer_3">
      <title>Layer 3</title>
      <g id="Graphic_15">
        <rect x="526.7383" y="393.08984" width="123.23047" height="66.88672" fill="#73fb79"/>
        <path d="M 526.3585 393.0904 L 650.2517 392.9078 M 649.70205 392.6415 L 649.5914 460.43797 M 650.3989 460.1728 L 526.0169 459.79304 M 526.9724 460.10594 L 526.7349 392.12785 M 526.48333 392.85874 L 649.8266 392.78044 M 649.8349 392.5165 L 649.7979 460.0455 M 650.5237 460.10135 L 527.09625 459.6944 M 526.9793 459.98135 L 526.78526 392.9651" stroke="black" stroke-linecap="round" stroke-linejoin="round" stroke-width="2"/>
        <text transform="translate(531.7383 413.9271)" fill="black">
          <tspan font-family="Chalkduster" font-size="16" fill="black" x="5.6539084" y="20" xml:space="preserve">Event Loop</tspan>
        </text>
      </g>
      <g id="Graphic_18">
        <rect x="756.5742" y="393.08984" width="123.23047" height="66.88672" fill="#73fb79"/>
        <path d="M 756.0329 393.09014 L 880.6734 393.0221 M 880.1526 392.28294 L 879.9112 460.8396 M 880.4733 460.03456 L 756.6388 460.2083 M 757.0107 460.72243 L 756.5704 392.50383 M 756.1579 392.9339 L 880.2749 392.8132 M 880.3933 392.15835 L 880.0774 459.9105 M 880.5984 459.9794 L 757.1324 460.09656 M 757.121 460.5975 L 756.58335 392.9656" stroke="black" stroke-linecap="round" stroke-linejoin="round" stroke-width="2"/>
        <text transform="translate(761.5742 413.9271)" fill="black">
          <tspan font-family="Chalkduster" font-size="16" fill="black" x="5.6539084" y="20" xml:space="preserve">Event Loop</tspan>
        </text>
      </g>
      <g id="Graphic_19">
        <rect x="526.7383" y="306.89453" width="123.23047" height="66.88672" fill="#73fb79"/>
        <path d="M 526.39315 306.89555 L 650.69945 306.53014 M 650.1907 305.8848 L 649.56676 374.1948 M 650.55015 373.4589 L 525.6482 373.8191 M 526.57 374.3993 L 526.74005 306.18384 M 526.5179 306.68113 L 650.3095 306.2955 M 650.3842 305.76043 L 649.76426 373.3373 M 650.6755 373.4508 L 526.6967 373.7853 M 526.67314 374.27424 L 526.8598 306.76952" stroke="black" stroke-linecap="round" stroke-linejoin="round" stroke-width="2"/>
        <text transform="translate(531.7383 327.7318)" fill="black">
          <tspan font-family="Chalkduster" font-size="16" fill="black" x="29.52131" y="20" xml:space="preserve">Queue</tspan>
        </text>
      </g>
      <g id="Graphic_20">
        <rect x="756.5742" y="306.89453" width="123.23047" height="66.88672" fill="#73fb79"/>
        <path d="M 755.6753 306.89204 L 880.3973 307.23764 M 879.8915 306.68192 L 879.9049 374.74535 M 880.5489 374.0858 L 756.07945 373.61762 M 756.8097 374.27146 L 756.5713 306.05916 M 755.8003 306.74443 L 880.0166 307.0981 M 880.0375 306.5569 L 880.123 373.95835 M 880.6738 373.9998 L 756.93225 373.54433 M 756.9057 374.14656 L 756.6831 306.7696" stroke="black" stroke-linecap="round" stroke-linejoin="round" stroke-width="2"/>
        <text transform="translate(761.5742 327.7318)" fill="black">
          <tspan font-family="Chalkduster" font-size="16" fill="black" x="29.52131" y="20" xml:space="preserve">Queue</tspan>
        </text>
      </g>
      <g id="Line_21">
        <path d="M 588.3811 393.49517 L 588.2494 386.78023 M 588.4695 393.24833 L 588.4386 387.52543" marker-end="url(#StickArrow_Marker)" stroke="black" stroke-linecap="round" stroke-linejoin="round" stroke-width="2"/>
      </g>
      <g id="Line_22">
        <path d="M 818.2601 393.10064 L 817.7783 386.2093 M 818.4822 392.8526 L 817.9625 386.9424" marker-end="url(#StickArrow_Marker)" stroke="black" stroke-linecap="round" stroke-linejoin="round" stroke-width="2"/>
      </g>
    </g>
    <g id="Canvas_1_Layer_1">
      <title>Layer 1</title>
      <g id="Graphic_12">
        <rect x="196" y="164.17773" width="158.39844" height="47.03906" fill="#ebebeb"/>
        <path d="M 195.03171 164.17954 L 355.09554 163.88165 M 354.5187 163.33796 L 354.53554 212.02658 M 354.84014 211.54543 L 195.24263 211.62475 M 196.03353 212.47967 L 195.9996 163.58976 M 195.1566 163.99745 L 354.6438 163.71055 M 354.6686 163.21295 L 354.784 211.42053 M 354.96515 211.45768 L 196.15795 211.53253 M 196.06195 212.35474 L 196.08484 164.05276" stroke="black" stroke-linecap="round" stroke-linejoin="round" stroke-width="2"/>
        <text transform="translate(201 175.09119)" fill="black">
          <tspan font-family="Chalkduster" font-size="16" fill="black" x="46.44231" y="20" xml:space="preserve">Client</tspan>
        </text>
      </g>
      <g id="Graphic_11">
        <path d="M 505.40195 267.8086 L 671.7258 267.809 M 671.1422 267.17167 L 670.5305 469.0483 M 671.1695 468.4966 L 504.4637 468.39206 M 505.44787 469.1798 L 505.81725 267.3453 M 505.52695 267.5597 L 671.2653 267.6638 M 671.3395 267.0469 L 670.75336 468.37147 M 671.2944 468.48673 L 505.57426 468.34575 M 505.4835 469.0546 L 505.91386 267.68354" stroke="black" stroke-linecap="round" stroke-linejoin="round" stroke-width="2"/>
        <text transform="translate(510.8164 272.8086)" fill="black">
          <tspan font-family="Chalkduster" font-size="16" fill="black" x="0" y="20" xml:space="preserve">Thread</tspan>
        </text>
      </g>
      <g id="Graphic_10">
        <rect x="613.2012" y="154.2539" width="158.39844" height="66.88672" fill="#73fb79"/>
        <path d="M 612.59055 154.25277 L 772.5728 154.55082 M 771.981 153.81984 L 771.7436 221.84932 M 772.7157 221.22782 L 613.00316 220.93951 M 613.43655 221.65916 L 613.2 153.91529 M 612.7157 154.06206 L 772.1037 154.30653 M 772.2256 153.69526 L 771.9395 221.1013 M 772.84055 221.17088 L 613.5588 220.93826 M 613.47934 221.53445 L 613.31125 154.12896" stroke="black" stroke-linecap="round" stroke-linejoin="round" stroke-width="2"/>
        <text transform="translate(618.2012 175.09119)" fill="black">
          <tspan font-family="Chalkduster" font-size="16" fill="black" x="9.854467" y="20" xml:space="preserve">Thread Picker</tspan>
        </text>
      </g>
      <g id="Line_7">
        <path d="M 673.00995 221.36488 L 652.1698 257.0675 M 673.2878 221.13115 L 653.1101 255.78245" marker-end="url(#StickArrow_Marker)" stroke="black" stroke-linecap="round" stroke-linejoin="round" stroke-width="2"/>
      </g>
      <g id="Line_4">
        <path d="M 354.8232 187.69694 L 600.9043 187.83452 M 355.0733 187.2638 L 599.85934 187.42138" marker-end="url(#StickArrow_Marker)" stroke="black" stroke-linecap="round" stroke-linejoin="round" stroke-width="2"/>
      </g>
      <g id="Graphic_3">
        <text transform="translate(390.9316 159.2539)" fill="black">
          <tspan font-family="Chalkduster" font-size="16" fill="black" x="0" y="20" xml:space="preserve">add()</tspan>
        </text>
      </g>
    </g>
    <g id="Canvas_1_Layer_2">
      <title>Layer 2</title>
      <g id="Graphic_13">
        <path d="M 477.6275 116.07353 L 936.7868 116.4843 M 936.2194 116.03159 L 935.8597 505.3603 M 936.5822 504.95004 L 478.23755 505.21184 M 478.8336 506.13504 L 478.3988 115.36157 M 477.7526 115.83325 L 936.344 116.28462 M 936.447 115.90668 L 936.0111 504.8255 M 936.7073 504.9094 L 478.9576 505.1998 M 478.85483 506.01016 L 478.4718 115.94928" stroke="black" stroke-linecap="round" stroke-linejoin="round" stroke-width="2"/>
        <text transform="translate(483.3996 121.07422)" fill="black">
          <tspan font-family="Chalkduster" font-size="16" fill="black" x="0" y="20" xml:space="preserve">IO Executor</tspan>
        </text>
      </g>
      <g id="Graphic_17">
        <path d="M 734.9149 267.80758 L 901.7334 268.03727 M 901.2046 267.20455 L 900.3367 470.10154 M 901.2323 469.22623 L 735.1216 469.2163 M 735.6855 469.6628 L 735.6523 267.34725 M 735.04 267.58454 L 901.3261 267.85438 M 901.3677 267.0797 L 900.4764 469.10123 M 901.3573 469.12397 L 735.81045 469.15 M 735.803 469.5378 L 735.6741 267.6836" stroke="black" stroke-linecap="round" stroke-linejoin="round" stroke-width="2"/>
        <text transform="translate(740.6523 272.8086)" fill="black">
          <tspan font-family="Chalkduster" font-size="16" fill="black" x="0" y="20" xml:space="preserve">Thread</tspan>
        </text>
      </g>
      <g id="Line_16">
        <path d="M 715.327 220.6056 L 739.9523 256.15965 M 715.64255 220.31023 L 739.6356 254.98548" marker-end="url(#StickArrow_Marker)" stroke="black" stroke-linecap="round" stroke-linejoin="round" stroke-width="2"/>
      </g>
    </g>
  </g>
</svg>
