<?xml version="1.0" encoding="UTF-8" standalone="no"?>
<!DOCTYPE svg PUBLIC "-//W3C//DTD SVG 1.1//EN" "http://www.w3.org/Graphics/SVG/1.1/DTD/svg11.dtd">
<svg xmlns:dc="http://purl.org/dc/elements/1.1/" version="1.1" xmlns="http://www.w3.org/2000/svg" xmlns:xl="http://www.w3.org/1999/xlink" viewBox="391 249 367 156" width="375">
  <defs>
    <marker orient="auto" overflow="visible" markerUnits="strokeWidth" id="StickArrow_Marker" stroke-linejoin="miter" stroke-miterlimit="10" viewBox="-1 -3 7 6" markerWidth="7" markerHeight="6" color="black">
      <g>
        <path d="M 4.8 0 L 0 0 M 0 -1.8 L 4.8 0 L 0 1.8" fill="none" stroke="currentColor" stroke-width="1"/>
      </g>
    </marker>
  </defs>
  <g id="Canvas_1" stroke-opacity="1" stroke="none" fill="none" stroke-dasharray="none" fill-opacity="1">
    <title>Canvas 1</title>
    <rect fill="white" x="391" y="249" width="367" height="156"/>
    <g id="Canvas_1_Layer_1">
      <title>Layer 1</title>
      <g id="Graphic_10">
        <rect x="491.65234" y="355.14453" width="158.39844" height="47.03906" fill="#80ff80"/>
        <path d="M 491.0417 355.1434 L 651.024 355.44145 M 650.43326 354.71047 L 650.1938 402.8923 M 651.16685 402.2708 L 491.4543 401.9825 M 491.8888 402.70213 L 491.65066 354.8059 M 491.16685 354.9527 L 650.55485 355.19715 M 650.6779 354.58607 L 650.3907 402.1444 M 651.2917 402.21385 L 492.01 401.98123 M 491.9316 402.57754 L 491.7624 355.0196" stroke="black" stroke-linecap="round" stroke-linejoin="round" stroke-width="2"/>
        <text transform="translate(496.65234 366.058)" fill="black">
          <tspan font-family="Chalkduster" font-size="16" fill="black" x="38.009164" y="20" xml:space="preserve">libmy.so</tspan>
        </text>
      </g>
      <g id="Graphic_9">
        <rect x="393.65625" y="252.98438" width="158.39844" height="47.03906" fill="#80ff80"/>
        <path d="M 392.84947 252.98646 L 552.16597 252.57403 M 551.5603 251.75316 L 551.7075 301.1816 M 552.25794 300.48885 L 392.8629 300.0173 M 393.48677 300.6698 L 393.65968 252.02044 M 392.97445 252.85394 L 551.6875 252.3594 M 551.72725 251.62804 L 551.8717 300.3621 M 552.3829 300.3848 L 393.61395 299.93703 M 393.53674 300.54454 L 393.77894 252.85937" stroke="black" stroke-linecap="round" stroke-linejoin="round" stroke-width="2"/>
        <text transform="translate(398.65625 263.89783)" fill="black">
          <tspan font-family="Chalkduster" font-size="16" fill="black" x="21.78817" y="20" xml:space="preserve">my_file_1.o</tspan>
        </text>
      </g>
      <g id="Graphic_8">
        <rect x="596.16016" y="252.98438" width="158.39844" height="47.03906" fill="#80ff80"/>
        <path d="M 595.9072 252.98456 L 754.8079 252.87056 M 754.18575 251.95607 L 754.7224 300.631 M 755.599 299.8636 L 595.7715 300.21703 M 596.5983 300.79762 L 596.1525 252.14514 M 596.03215 252.78523 L 754.3208 252.6818 M 754.4001 251.8301 L 754.8528 299.7404 M 755.72425 299.83746 L 596.71815 300.178 M 596.65545 300.67325 L 596.1705 252.86043" stroke="black" stroke-linecap="round" stroke-linejoin="round" stroke-width="2"/>
        <text transform="translate(601.16016 263.89783)" fill="black">
          <tspan font-family="Chalkduster" font-size="16" fill="black" x="21.611373" y="20" xml:space="preserve">my_file_2.o</tspan>
        </text>
      </g>
      <g id="Line_7">
        <path d="M 495.7601 300.3692 L 538.7853 346.1037 M 496.0336 300.0971 L 538.23855 344.8982" marker-end="url(#StickArrow_Marker)" stroke="black" stroke-linecap="round" stroke-linejoin="round" stroke-width="2"/>
      </g>
      <g id="Line_6">
        <path d="M 651.19165 300.11357 L 604.0572 346.97 M 651.5586 299.98123 L 605.2149 345.8464" marker-end="url(#StickArrow_Marker)" stroke="black" stroke-linecap="round" stroke-linejoin="round" stroke-width="2"/>
      </g>
    </g>
  </g>
</svg>
