<?xml version="1.0" encoding="UTF-8" standalone="no"?>
<!DOCTYPE svg PUBLIC "-//W3C//DTD SVG 1.1//EN" "http://www.w3.org/Graphics/SVG/1.1/DTD/svg11.dtd">
<svg xmlns:dc="http://purl.org/dc/elements/1.1/" version="1.1" xmlns="http://www.w3.org/2000/svg" xmlns:xl="http://www.w3.org/1999/xlink" viewBox="336 307 166 153" width="175">
  <defs>
    <marker orient="auto" overflow="visible" markerUnits="strokeWidth" id="StickArrow_Marker" stroke-linejoin="miter" stroke-miterlimit="10" viewBox="-1 -3 7 6" markerWidth="7" markerHeight="6" color="black">
      <g>
        <path d="M 4.8 0 L 0 0 M 0 -1.8 L 4.8 0 L 0 1.8" fill="none" stroke="currentColor" stroke-width="1"/>
      </g>
    </marker>
  </defs>
  <g id="Canvas_1" stroke-opacity="1" stroke="none" fill="none" stroke-dasharray="none" fill-opacity="1">
    <title>Canvas 1</title>
    <rect fill="white" x="336" y="307" width="166" height="153"/>
    <g id="Canvas_1_Layer_1">
      <title>Layer 1</title>
      <g id="Graphic_10">
        <rect x="339.26953" y="410.41016" width="158.39844" height="47.03906" fill="#80ff80"/>
        <path d="M 338.6589 410.409 L 498.6412 410.70707 M 498.05045 409.9761 L 497.811 458.1579 M 498.78403 457.5364 L 339.0715 457.2481 M 339.50597 457.96775 L 339.26785 410.07154 M 338.78403 410.2183 L 498.17204 410.4628 M 498.29506 409.8517 L 498.00785 457.41 M 498.9089 457.4795 L 339.62717 457.24686 M 339.54876 457.84316 L 339.3796 410.28523" stroke="black" stroke-linecap="round" stroke-linejoin="round" stroke-width="2"/>
        <text transform="translate(344.26953 421.3236)" fill="black">
          <tspan font-family="Chalkduster" font-size="16" fill="black" x="48.360545" y="20" xml:space="preserve">.a.out</tspan>
        </text>
      </g>
      <g id="Graphic_9">
        <rect x="339.26953" y="311.3203" width="158.39844" height="47.03906" fill="#80ff80"/>
        <path d="M 338.46275 311.3224 L 497.77925 310.90997 M 497.17357 310.0891 L 497.3208 359.51753 M 497.8712 358.8248 L 338.4762 358.35324 M 339.10005 359.00575 L 339.27296 310.35637 M 338.58773 311.1899 L 497.3008 310.69534 M 497.34053 309.96398 L 497.485 358.69803 M 497.99616 358.72075 L 339.22724 358.27297 M 339.15002 358.8805 L 339.39222 311.1953" stroke="black" stroke-linecap="round" stroke-linejoin="round" stroke-width="2"/>
        <text transform="translate(344.26953 322.23376)" fill="black">
          <tspan font-family="Chalkduster" font-size="16" fill="black" x="38.009164" y="20" xml:space="preserve">libmy.so</tspan>
        </text>
      </g>
      <g id="Line_7">
        <path d="M 418.47993 358.4612 L 417.9862 398.11604 M 418.7622 358.2116 L 418.32603 396.62515" marker-end="url(#StickArrow_Marker)" stroke="black" stroke-linecap="round" stroke-linejoin="round" stroke-width="2"/>
      </g>
    </g>
  </g>
</svg>
