<?xml version="1.0" encoding="UTF-8" standalone="no"?>
<!DOCTYPE svg PUBLIC "-//W3C//DTD SVG 1.1//EN" "http://www.w3.org/Graphics/SVG/1.1/DTD/svg11.dtd">
<svg xmlns:dc="http://purl.org/dc/elements/1.1/" version="1.1" xmlns="http://www.w3.org/2000/svg" xmlns:xl="http://www.w3.org/1999/xlink" viewBox="165 195 617 266" width="600">
  <defs>
    <marker orient="auto" overflow="visible" markerUnits="strokeWidth" id="StickArrow_Marker" stroke-linejoin="miter" stroke-miterlimit="10" viewBox="-1 -3 7 6" markerWidth="7" markerHeight="6" color="black">
      <g>
        <path d="M 4.8 0 L 0 0 M 0 -1.8 L 4.8 0 L 0 1.8" fill="none" stroke="currentColor" stroke-width="1"/>
      </g>
    </marker>
  </defs>
  <g id="Canvas_1" stroke-opacity="1" stroke="none" fill="none" stroke-dasharray="none" fill-opacity="1">
    <title>Canvas 1</title>
    <rect fill="white" x="165" y="195" width="617" height="266"/>
    <g id="Canvas_1_Layer_1">
      <title>Layer 1</title>
      <g id="Graphic_15">
        <rect x="372.6992" y="213.5" width="406.8008" height="141.10156" fill="white"/>
        <path d="M 372.31943 213.50017 L 779.7829 213.31851 M 779.2331 213.05166 L 779.1229 355.06297 M 779.9301 354.7961 L 371.9778 354.42007 M 372.93277 354.73094 L 372.69763 212.538 M 372.4444 213.2685 L 779.3579 213.1906 M 779.3659 212.92667 L 779.3291 354.6704 M 780.0551 354.72463 L 373.05724 354.31942 M 372.93964 354.60614 L 372.7462 213.37513" stroke="black" stroke-linecap="round" stroke-linejoin="round" stroke-width="2"/>
        <text transform="translate(377.6992 218.5)" fill="black">
          <tspan font-family="Chalkduster" font-size="16" fill="black" x="0" y="20" xml:space="preserve">libmy.a</tspan>
        </text>
      </g>
      <g id="Graphic_14">
        <rect x="339.26953" y="410.41016" width="158.39844" height="47.03906" fill="#80ff80"/>
        <path d="M 338.69357 410.40974 L 498.08896 410.52473 M 497.528 410.16468 L 497.79763 457.3601 M 498.1853 457.02025 L 338.7028 457.4658 M 339.099 458.4564 L 339.2725 409.57284 M 338.8186 410.23627 L 497.6551 410.29816 M 497.7082 410.03936 L 497.97424 456.89603 M 498.3103 456.9017 L 339.22773 457.40804 M 339.11307 458.33103 L 339.32913 410.2849" stroke="black" stroke-linecap="round" stroke-linejoin="round" stroke-width="2"/>
        <text transform="translate(344.26953 421.3236)" fill="black">
          <tspan font-family="Chalkduster" font-size="16" fill="black" x="48.360545" y="20" xml:space="preserve">.a.out</tspan>
        </text>
      </g>
      <g id="Graphic_13">
        <rect x="394.2422" y="259" width="158.39844" height="47.03906" fill="#80ff80"/>
        <path d="M 393.47007 258.998 L 553.1997 259.41105 M 552.6354 258.95738 L 552.2698 306.39937 M 552.99514 305.9883 L 394.08014 306.25155 M 394.6836 307.17407 L 394.23566 258.28738 M 393.59537 258.75772 L 552.7571 259.2104 M 552.8629 258.83317 L 552.42405 305.8647 M 553.1203 305.94766 L 394.80034 306.23884 M 394.70486 307.05002 L 394.3144 258.87548" stroke="black" stroke-linecap="round" stroke-linejoin="round" stroke-width="2"/>
        <text transform="translate(399.2422 269.91345)" fill="black">
          <tspan font-family="Chalkduster" font-size="16" fill="black" x="21.78817" y="20" xml:space="preserve">my_file_1.o</tspan>
        </text>
      </g>
      <g id="Graphic_12">
        <rect x="596.7461" y="259" width="158.39844" height="47.03906" fill="#80ff80"/>
        <path d="M 595.7778 259.0018 L 755.8416 258.7039 M 755.2648 258.16022 L 755.2816 306.84885 M 755.5862 306.3677 L 595.9887 306.447 M 596.7796 307.30194 L 596.7457 258.41203 M 595.9027 258.8197 L 755.3899 258.5328 M 755.4147 258.0352 L 755.5301 306.2428 M 755.71125 306.27994 L 596.90405 306.3548 M 596.80804 307.177 L 596.8309 258.87503" stroke="black" stroke-linecap="round" stroke-linejoin="round" stroke-width="2"/>
        <text transform="translate(601.7461 269.91345)" fill="black">
          <tspan font-family="Chalkduster" font-size="16" fill="black" x="21.611373" y="20" xml:space="preserve">my_file_2.o</tspan>
        </text>
      </g>
      <g id="Line_11">
        <path d="M 464.81814 306.25854 L 431.8786 398.3881 M 465.30147 306.09197 L 432.56083 397.049" marker-end="url(#StickArrow_Marker)" stroke="black" stroke-linecap="round" stroke-linejoin="round" stroke-width="2"/>
      </g>
      <g id="Line_10">
        <path d="M 635.299 306.41503 L 471.0205 404.07013 M 635.6162 306.278 L 472.4131 403.4159" marker-end="url(#StickArrow_Marker)" stroke="black" stroke-linecap="round" stroke-linejoin="round" stroke-width="2"/>
      </g>
      <g id="Graphic_9">
        <rect x="168.36719" y="286.9336" width="158.39844" height="47.03906" fill="#80ff80"/>
        <path d="M 167.5604 286.93568 L 326.8769 286.52325 M 326.27122 285.70238 L 326.41845 335.1308 M 326.96888 334.43807 L 167.57385 333.96653 M 168.1977 334.61903 L 168.37061 285.96965 M 167.68538 286.80316 L 326.39844 286.30862 M 326.4382 285.57726 L 326.58266 334.3113 M 327.0938 334.33403 L 168.3249 333.88625 M 168.24768 334.49376 L 168.48988 286.8086" stroke="black" stroke-linecap="round" stroke-linejoin="round" stroke-width="2"/>
        <text transform="translate(173.36719 297.84705)" fill="black">
          <tspan font-family="Chalkduster" font-size="16" fill="black" x="43.26883" y="20" xml:space="preserve">main.o</tspan>
        </text>
      </g>
      <g id="Graphic_8">
        <rect x="168.36719" y="199.23047" width="158.39844" height="47.03906" fill="#76d6ff"/>
        <path d="M 168.11424 199.23065 L 327.01496 199.11666 M 326.3928 198.20216 L 326.92942 246.8771 M 327.80606 246.10968 L 167.97852 246.46313 M 168.80532 247.04372 L 168.3595 198.39123 M 168.23918 199.03132 L 326.52783 198.9279 M 326.6071 198.07618 L 327.0598 245.9865 M 327.93128 246.08355 L 168.92518 246.42408 M 168.86248 246.91934 L 168.3775 199.10652" stroke="black" stroke-linecap="round" stroke-linejoin="round" stroke-width="2"/>
        <text transform="translate(173.36719 210.14392)" fill="black">
          <tspan font-family="Chalkduster" font-size="16" fill="black" x="34.278777" y="20" xml:space="preserve">main.cpp</tspan>
        </text>
      </g>
      <g id="Line_3">
        <path d="M 247.54572 246.3022 L 248.16094 275.07343 M 247.86246 246.05076 L 248.49128 273.50862" marker-end="url(#StickArrow_Marker)" stroke="black" stroke-linecap="round" stroke-linejoin="round" stroke-width="2"/>
      </g>
      <g id="Line_2">
        <path d="M 280.39412 334.18626 L 375.98553 401.943 M 280.76 333.7728 L 375.18153 400.8792" marker-end="url(#StickArrow_Marker)" stroke="black" stroke-linecap="round" stroke-linejoin="round" stroke-width="2"/>
      </g>
    </g>
  </g>
</svg>
