<?xml version="1.0" encoding="UTF-8" standalone="no"?>
<!DOCTYPE svg PUBLIC "-//W3C//DTD SVG 1.1//EN" "http://www.w3.org/Graphics/SVG/1.1/DTD/svg11.dtd">
<svg xmlns="http://www.w3.org/2000/svg" xmlns:dc="http://purl.org/dc/elements/1.1/" xmlns:xl="http://www.w3.org/1999/xlink" version="1.1" viewBox="386 327 419 339" width="419" height="339">
  <defs/>
  <g id="Canvas_1" fill-opacity="1" stroke-opacity="1" stroke-dasharray="none" fill="none" stroke="none">
    <title>Canvas 1</title>
    <rect fill="white" x="386" y="327" width="419" height="339"/>
    <g id="Canvas_1_Layer_1">
      <title>Layer 1</title>
      <g id="Line_2">
        <path d="M 462.0837 654.9313 C 467.824 619.5091 446.79037 556.563 469.0837 538.9313 C 491.37705 521.2996 651.9709 540.98905 663.0837 525.9313 C 674.1965 510.8736 679.28286 447.14153 672.0837 439.9313 C 664.88456 432.7211 613.8144 436.7928 603.0837 444.9313 C 592.353 453.0698 609.7121 479.1879 594.3412 486.7542 C 578.97036 494.3205 526.9515 498.0199 516.2748 486.0745 C 505.59815 474.1291 504.8112 427.3824 517.2748 414.0745 C 529.7384 400.7666 693.1935 385.20174 706.6537 407.72293 C 720.114 430.2441 728.47665 522.8752 693.0837 547.9313 C 657.6908 572.9874 511.4008 540.5997 494.2748 558.0745 C 477.14883 575.5493 472.7546 647.0984 515.0837 650.9313 C 557.4128 654.7643 711.2546 657.4264 748.0837 607.9313 C 784.9128 558.43627 815.9736 392.96373 792.2748 353.0745 C 768.576 313.18525 430.32147 332.3649 412.0837 370.88127 C 393.84595 409.39765 384.14036 635.287 393.80606 650.7854 C 403.47176 666.2839 438.5963 662.5012 460.0837 657.9313" stroke="#bc1e47" stroke-linecap="round" stroke-linejoin="round" stroke-width="7"/>
      </g>
      <g id="Graphic_3">
        <title>path35364</title>
        <path d="M 558.0086 433.1132 C 563.5853 436.33545 565.6208 443.3829 562.61995 449.079 C 559.6191 454.77503 552.6528 457.0871 546.838 454.3168 C 541.0232 451.5466 538.43486 444.6826 540.9742 438.7667 C 543.5136 432.8508 550.2745 429.99404 556.29085 432.2948" fill="black"/>
      </g>
    </g>
  </g>
</svg>
