<?xml version="1.0" encoding="UTF-8" standalone="no"?>
<!DOCTYPE svg PUBLIC "-//W3C//DTD SVG 1.1//EN" "http://www.w3.org/Graphics/SVG/1.1/DTD/svg11.dtd">
<svg xmlns="http://www.w3.org/2000/svg" xmlns:dc="http://purl.org/dc/elements/1.1/" xmlns:xl="http://www.w3.org/1999/xlink" version="1.1" viewBox="274 149 983 374" width="983" height="374">
  <defs/>
  <g id="Canvas_1" fill-opacity="1" stroke-opacity="1" stroke-dasharray="none" fill="none" stroke="none">
    <title>Canvas 1</title>
    <rect fill="white" x="274" y="149" width="983" height="374"/>
    <g id="Canvas_1_Layer_1">
      <title>Layer 1</title>
      <g id="Line_51">
        <path d="M 907.1205 392.22933 C 905.5943 414.2058 908.731 423.37687 948.8238 440.74405 C 991.6809 459.3087 1157.985 462.382 1184.8782 421.21344 C 1211.7713 380.04487 1267.9836 228.38676 1237.2309 195.22843 C 1206.4782 162.0701 930.2388 157.01715 898.4836 186.51956 C 866.7284 216.02197 844.0002 468.11456 897.5 495.94225 C 950.9998 523.76993 1110.9194 521.68 1169.9122 511.6896 C 1226.5426 502.09933 1244.665 477.7023 1250.7867 440.6916" stroke="#bc1e47" stroke-linecap="round" stroke-linejoin="round" stroke-width="6"/>
      </g>
      <g id="Line_42">
        <path d="M 907.4587 382.74415 C 908.7364 361.33245 929.891 351.4925 959.2724 348.02495 C 990.7452 344.31057 1152.9054 359.30868 1176.1137 323.35733 C 1199.3221 287.406 1167.8714 228.69643 1104.6061 223.25425 C 1041.3408 217.81208 959.7081 213.3254 960.3884 264.54833 C 961.0687 315.77126 1139.9802 325.97534 1180.7966 344.3427 C 1220.6721 362.2867 1251.5261 365.6206 1251.5427 431.2443" stroke="#005493" stroke-linecap="round" stroke-linejoin="round" stroke-width="6"/>
      </g>
      <g id="Graphic_4">
        <title>path35364</title>
        <path d="M 1054.7473 252.35723 C 1060.324 255.5795 1062.3595 262.62698 1059.3587 268.32303 C 1056.3579 274.0191 1049.3915 276.33113 1043.5767 273.56088 C 1037.7619 270.79063 1035.1736 263.92663 1037.713 258.01073 C 1040.2523 252.09484 1047.0133 249.2381 1053.0296 251.53887" fill="black"/>
      </g>
      <g id="Line_6">
        <line x1="1039.7478" y1="270.6799" x2="911.0538" y2="384.3482" stroke="black" stroke-linecap="round" stroke-linejoin="round" stroke-dasharray="4.0,4.0" stroke-width="1"/>
      </g>
      <g id="Graphic_8">
        <title>path15936</title>
        <path d="M 1078.3532 154.12636 L 1053.1593 166.72508 L 1076.9035 181.7884" stroke="#bc1e47" stroke-linecap="round" stroke-linejoin="round" stroke-width="6"/>
      </g>
      <g id="Line_9">
        <line x1="1057.862" y1="270.53187" x2="1247.8795" y2="432.90697" stroke="black" stroke-linecap="round" stroke-linejoin="round" stroke-dasharray="4.0,4.0" stroke-width="1"/>
      </g>
      <g id="Graphic_12">
        <title>path15936</title>
        <path d="M 1067.2386 235.36367 L 1091.4923 221.0382 L 1066.7552 207.6679" stroke="#005493" stroke-linecap="round" stroke-linejoin="round" stroke-width="6"/>
      </g>
      <g id="Graphic_20">
        <title>path35364</title>
        <path d="M 1253.8712 431.88296 C 1256.0799 433.1592 1256.8861 435.9504 1255.6976 438.20637 C 1254.5091 440.46235 1251.75 441.37805 1249.447 440.28087 C 1247.144 439.1837 1246.1188 436.46514 1247.1246 434.1221 C 1248.1303 431.77904 1250.808 430.6476 1253.1909 431.55885" fill="black"/>
      </g>
      <g id="Graphic_19">
        <title>path35364</title>
        <path d="M 909.8712 391.60514 C 912.0799 390.32892 912.8861 387.5377 911.6976 385.28173 C 910.5091 383.02575 907.75 382.11005 905.447 383.20723 C 903.144 384.3044 902.1188 387.02297 903.1246 389.366 C 904.1303 391.70906 906.8081 392.8405 909.1909 391.92926" fill="black"/>
      </g>
      <g id="Graphic_52">
        <title>path15936</title>
        <path d="M 1044.2026 469.00224 L 1067.6733 453.42706 L 1042.2703 441.3697" stroke="#bc1e47" stroke-linecap="round" stroke-linejoin="round" stroke-width="6"/>
      </g>
      <g id="Graphic_53">
        <title>path15936</title>
        <path d="M 1037.0873 333.91494 L 1012.8337 348.2404 L 1037.5708 361.6107" stroke="#005493" stroke-linecap="round" stroke-linejoin="round" stroke-width="6"/>
      </g>
      <g id="Line_64">
        <path d="M 319.1205 393.3573 C 317.5943 415.3338 320.731 424.50485 360.82377 441.872 C 403.6809 460.43665 569.98505 463.51 596.8782 422.3414 C 623.77134 381.17284 679.9836 229.51474 649.2309 196.3564 C 618.4782 163.19807 342.23882 158.14513 310.48364 187.64754 C 278.72845 217.14994 256.00023 469.24254 309.5 497.0702 C 362.99977 524.8979 522.9194 522.808 581.9122 512.8176 C 638.5426 503.2273 656.665 478.8303 662.7867 441.8196" stroke="#bc1e47" stroke-linecap="round" stroke-linejoin="round" stroke-width="6"/>
      </g>
      <g id="Line_63">
        <path d="M 319.45866 383.87213 C 320.73645 362.4604 341.89103 352.6205 371.27245 349.15292 C 402.7452 345.43855 564.9054 360.43665 588.11374 324.4853 C 611.3221 288.53396 579.8714 229.8244 516.6061 224.38223 C 453.3408 218.94005 371.70813 214.45337 372.3884 265.6763 C 373.06867 316.89924 551.98024 327.1033 592.79656 345.47066 C 632.6721 363.41467 663.5261 366.7486 663.5427 432.3723" stroke="#bc1e47" stroke-linecap="round" stroke-linejoin="round" stroke-width="6"/>
      </g>
      <g id="Graphic_62">
        <title>path35364</title>
        <path d="M 466.74734 253.4852 C 472.324 256.70748 474.3595 263.75495 471.3587 269.451 C 468.35787 275.14706 461.39155 277.4591 455.57673 274.68885 C 449.7619 271.9186 447.1736 265.0546 449.71297 259.1387 C 452.25234 253.2228 459.01326 250.36606 465.0296 252.66684" fill="black"/>
      </g>
      <g id="Graphic_60">
        <title>path15936</title>
        <path d="M 490.35315 155.25434 L 465.15925 167.85305 L 488.90344 182.91637" stroke="#bc1e47" stroke-linecap="round" stroke-linejoin="round" stroke-width="6"/>
      </g>
      <g id="Graphic_58">
        <title>path15936</title>
        <path d="M 479.23865 236.49165 L 503.49233 222.16618 L 478.7552 208.79587" stroke="#bc1e47" stroke-linecap="round" stroke-linejoin="round" stroke-width="6"/>
      </g>
      <g id="Graphic_57">
        <title>path35364</title>
        <path d="M 665.8712 433.01094 C 668.0799 434.28715 668.8861 437.07837 667.6976 439.33435 C 666.5091 441.5903 663.75 442.50603 661.447 441.40885 C 659.144 440.31166 658.11885 437.5931 659.1246 435.25006 C 660.1303 432.907 662.80806 431.7756 665.1909 432.6868" fill="black"/>
      </g>
      <g id="Graphic_56">
        <title>path35364</title>
        <path d="M 321.8712 392.7331 C 324.0799 391.4569 324.8861 388.6657 323.6976 386.4097 C 322.50908 384.15373 319.75 383.238 317.447 384.3352 C 315.14398 385.4324 314.11885 388.15094 315.1246 390.494 C 316.13033 392.83703 318.80806 393.96848 321.1909 393.05723" fill="black"/>
      </g>
      <g id="Graphic_55">
        <title>path15936</title>
        <path d="M 456.20255 470.1302 L 479.67326 454.55504 L 454.2703 442.4977" stroke="#bc1e47" stroke-linecap="round" stroke-linejoin="round" stroke-width="6"/>
      </g>
      <g id="Graphic_54">
        <title>path15936</title>
        <path d="M 449.08735 335.0429 L 424.83367 349.3684 L 449.5708 362.7387" stroke="#bc1e47" stroke-linecap="round" stroke-linejoin="round" stroke-width="6"/>
      </g>
    </g>
  </g>
</svg>
