<?xml version="1.0" encoding="UTF-8" standalone="no"?>
<!DOCTYPE svg PUBLIC "-//W3C//DTD SVG 1.1//EN" "http://www.w3.org/Graphics/SVG/1.1/DTD/svg11.dtd">
<svg xmlns="http://www.w3.org/2000/svg" xmlns:dc="http://purl.org/dc/elements/1.1/" xmlns:xl="http://www.w3.org/1999/xlink" version="1.1" viewBox="337 168 910 393" width="910" height="393">
  <defs>
    <marker orient="auto" overflow="visible" markerUnits="strokeWidth" id="FilledArrow_Marker" stroke-linejoin="miter" stroke-miterlimit="10" viewBox="-1 -6 14 12" markerWidth="14" markerHeight="12" color="black">
      <g>
        <path d="M 12 0 L 0 -4.5 L 0 4.5 Z" fill="currentColor" stroke="currentColor" stroke-width="1"/>
      </g>
    </marker>
  </defs>
  <g id="Canvas_1" fill-opacity="1" stroke-opacity="1" stroke-dasharray="none" fill="none" stroke="none">
    <title>Canvas 1</title>
    <rect fill="white" x="337" y="168" width="910" height="393"/>
    <g id="Canvas_1_Layer_1">
      <title>Layer 1</title>
      <g id="Graphic_72">
        <path d="M 1021.2109 361.3125 L 993.9338 327.62808 C 1012.5372 312.56335 1039.8306 315.432 1054.8953 334.0354 C 1069.96 352.6388 1067.0914 379.9322 1048.488 394.9969 C 1043.7675 398.8195 1038.2962 401.60724 1032.429 403.17935 L 1021.2109 361.3125 Z" stroke="#bc1e47" stroke-linecap="round" stroke-linejoin="round" stroke-width="6"/>
      </g>
      <g id="Line_117">
        <line x1="1031.649" y1="398.7759" x2="1022.4452" y2="366.63634" stroke="white" stroke-linecap="round" stroke-linejoin="round" stroke-width="8"/>
      </g>
      <g id="Line_118">
        <line x1="1017.7365" y1="357.47607" x2="996.4204" y2="330.6059" stroke="#feffff" stroke-linecap="round" stroke-linejoin="round" stroke-width="8"/>
      </g>
      <g id="Graphic_15">
        <circle cx="530.2109" cy="361.3125" r="43.3438192590603" stroke="black" stroke-linecap="round" stroke-linejoin="round" stroke-width="1"/>
      </g>
      <g id="Line_14">
        <line x1="338" y1="361.3125" x2="722.6" y2="361.3125" marker-end="url(#FilledArrow_Marker)" stroke="black" stroke-linecap="round" stroke-linejoin="round" stroke-width="1"/>
      </g>
      <g id="Line_13">
        <line x1="530" y1="554.625" x2="530" y2="182.9" marker-end="url(#FilledArrow_Marker)" stroke="black" stroke-linecap="round" stroke-linejoin="round" stroke-width="1"/>
      </g>
      <g id="Graphic_12">
        <title>path11083</title>
        <path d="M 532.6295 357.046 C 535.0707 358.45656 535.96176 361.5416 534.64815 364.03504 C 533.33454 366.5285 530.285 367.5406 527.7396 366.3279 C 525.19416 365.11523 524.0611 362.1105 525.17273 359.52083 C 526.28434 356.93115 529.24393 355.6806 531.8776 356.68777" fill="black"/>
      </g>
      <g id="Line_11">
        <path d="M 465.41603 275.9542 C 501.14504 253.05344 520.229 177.48092 555.3435 220.99237 C 590.458 264.50382 681.6844 217.86856 708.5586 224.77477 C 735.43275 231.681 747.597 293.095 741.8919 312.16216 C 736.1868 331.22932 679.0747 319.3966 674.3243 339.1892 C 669.5739 358.9818 725.82755 415.64113 713.3867 430.9297 C 700.9459 446.21824 618.62245 416.55287 599.6719 430.9297 C 580.7213 445.3065 609.4979 533.8938 567.15554 529.3893" stroke="#bc1e47" stroke-linecap="round" stroke-linejoin="round" stroke-width="6"/>
      </g>
      <g id="Graphic_10">
        <text transform="translate(447.26 244.5)" fill="black">
          <tspan font-family="Helvetica Neue" font-size="16" fill="black" x="14566126e-20" y="15" xml:space="preserve">z</tspan>
        </text>
      </g>
      <g id="Graphic_9">
        <text transform="translate(455.5 253.4242)" fill="black">
          <tspan font-family="Helvetica Neue" font-size="10" fill="black" x="6545875e-19" y="10" xml:space="preserve">1</tspan>
        </text>
      </g>
      <g id="Line_8">
        <path d="M 461.05417 278.87977 C 422.20144 304.00785 359.9499 321.83832 380.53435 361.3125 C 401.9084 402.3009 426.76954 341.60305 474.86115 385.87786 C 522.95275 430.15267 432.44275 404.96183 453.05344 444.6565 C 473.6641 484.35115 427.8626 481.2977 449.23664 509.542 C 470.6107 537.78626 540.8397 531.6794 567.15554 529.3893" stroke="#005493" stroke-linecap="round" stroke-linejoin="round" stroke-width="6"/>
      </g>
      <g id="Graphic_7">
        <title>path15936</title>
        <path d="M 752.8986 282.8561 L 738.0997 269.79456 L 734.5457 289.1755" stroke="#bc1e47" stroke-linecap="round" stroke-linejoin="round" stroke-width="6"/>
      </g>
      <g id="Graphic_6">
        <title>path15936</title>
        <path d="M 466.54396 390.7042 L 485.37604 396.6173 L 480.7398 377.4664" stroke="#005493" stroke-linecap="round" stroke-linejoin="round" stroke-width="6"/>
      </g>
      <g id="Graphic_5">
        <title>path11083</title>
        <path d="M 468.04556 271.41037 C 470.48675 272.82092 471.3778 275.90595 470.0642 278.3994 C 468.75057 280.89284 465.70106 281.90494 463.1556 280.69226 C 460.6102 279.4796 459.47715 276.47487 460.58876 273.8852 C 461.7004 271.2955 464.65997 270.04496 467.2936 271.05213" fill="black"/>
      </g>
      <g id="Graphic_4">
        <title>path11083</title>
        <path d="M 569.7851 524.8455 C 572.22626 526.25603 573.1173 529.34106 571.8037 531.8345 C 570.4901 534.32796 567.4406 535.34005 564.89513 534.1274 C 562.3497 532.9147 561.21666 529.91 562.3283 527.3203 C 563.4399 524.7306 566.3995 523.4801 569.0331 524.48724" fill="black"/>
      </g>
      <g id="Graphic_3">
        <text transform="translate(566.9018 534.55524)" fill="black">
          <tspan font-family="Helvetica Neue" font-size="16" fill="black" x="14566126e-20" y="15" xml:space="preserve">z</tspan>
        </text>
      </g>
      <g id="Graphic_2">
        <text transform="translate(575.1418 543.47943)" fill="black">
          <tspan font-family="Helvetica Neue" font-size="10" fill="black" x="6545875e-19" y="10" xml:space="preserve">2</tspan>
        </text>
      </g>
      <g id="Line_17">
        <line x1="526.8383" y1="357.3976" x2="468.5781" y2="280.14696" stroke="black" stroke-linecap="round" stroke-linejoin="round" stroke-dasharray="4.0,4.0" stroke-width="1"/>
      </g>
      <g id="Line_18">
        <line x1="531.13487" y1="366.71505" x2="566.02067" y2="524.2641" stroke="black" stroke-linecap="round" stroke-linejoin="round" stroke-dasharray="4.0,4.0" stroke-width="1"/>
      </g>
      <g id="Graphic_19">
        <title>path11083</title>
        <path d="M 506.78275 322.77426 C 509.22394 324.1848 510.115 327.26984 508.80137 329.7633 C 507.48776 332.25674 504.43825 333.26884 501.8928 332.05616 C 499.3474 330.8435 498.21434 327.83877 499.32595 325.2491 C 500.43756 322.6594 503.39716 321.40886 506.0308 322.41603" fill="black"/>
      </g>
      <g id="Graphic_20">
        <title>path11083</title>
        <path d="M 541.80345 398.4767 C 544.24464 399.88726 545.1357 402.9723 543.8221 405.46574 C 542.50846 407.9592 539.45896 408.9713 536.9135 407.7586 C 534.3681 406.54593 533.23505 403.5412 534.34666 400.95153 C 535.4583 398.36185 538.41786 397.1113 541.0515 398.11847" fill="black"/>
      </g>
      <g id="Graphic_21">
        <title>path15936</title>
        <path d="M 574.35875 339.71884 L 564.709 335.13026 L 565.75154 345.74568" stroke="black" stroke-linecap="round" stroke-linejoin="round" stroke-width="1"/>
      </g>
      <g id="Graphic_22">
        <text transform="translate(501.42015 291.95868)" fill="black">
          <tspan font-family="Times" font-size="18.0799999237061" fill="black" x="0" y="18" xml:space="preserve">ξ</tspan>
        </text>
      </g>
      <g id="Graphic_24">
        <text transform="translate(510.80806 305.64743)" fill="black">
          <tspan font-family="Helvetica Neue" font-size="10" fill="black" x="6545875e-19" y="10" xml:space="preserve">1</tspan>
        </text>
      </g>
      <g id="Graphic_25">
        <text transform="translate(552.34785 402.77054)" fill="black">
          <tspan font-family="Times" font-size="18.08" fill="black" x="0" y="18" xml:space="preserve">ξ</tspan>
        </text>
      </g>
      <g id="Graphic_26">
        <text transform="translate(561.8493 420.5)" fill="black">
          <tspan font-family="Helvetica Neue" font-size="10" fill="black" x="6545875e-19" y="10" xml:space="preserve">2</tspan>
        </text>
      </g>
      <g id="Line_71">
        <line x1="829" y1="361.3125" x2="1213.6" y2="361.3125" marker-end="url(#FilledArrow_Marker)" stroke="black" stroke-linecap="round" stroke-linejoin="round" stroke-width="1"/>
      </g>
      <g id="Line_70">
        <line x1="1021" y1="554.625" x2="1021" y2="182.9" marker-end="url(#FilledArrow_Marker)" stroke="black" stroke-linecap="round" stroke-linejoin="round" stroke-width="1"/>
      </g>
      <g id="Graphic_69">
        <title>path11083</title>
        <path d="M 1023.6295 357.046 C 1026.0707 358.45656 1026.9618 361.5416 1025.6481 364.03504 C 1024.3345 366.5285 1021.285 367.5406 1018.7396 366.3279 C 1016.1942 365.11523 1015.0611 362.1105 1016.1727 359.52083 C 1017.2843 356.93115 1020.2439 355.6806 1022.8776 356.68777" fill="black"/>
      </g>
      <g id="Line_68">
        <path d="M 956.416 275.9542 C 992.145 253.05344 1011.229 177.48092 1046.3435 220.99237 C 1081.458 264.50382 1172.6844 217.86856 1199.5586 224.77477 C 1226.4327 231.681 1238.597 293.095 1232.8919 312.16216 C 1227.1868 331.22932 1170.0747 319.3966 1165.3243 339.1892 C 1160.574 358.9818 1216.8275 415.64113 1204.3867 430.9297 C 1191.9459 446.21824 1109.6225 416.55287 1090.6719 430.9297 C 1071.7213 445.3065 1100.4979 533.8938 1058.1555 529.3893" stroke="#bc1e47" stroke-linecap="round" stroke-linejoin="round" stroke-width="6"/>
      </g>
      <g id="Graphic_67">
        <text transform="translate(938.26 244.5)" fill="black">
          <tspan font-family="Helvetica Neue" font-size="16" fill="black" x="14566126e-20" y="15" xml:space="preserve">z</tspan>
        </text>
      </g>
      <g id="Graphic_66">
        <text transform="translate(946.5 253.4242)" fill="black">
          <tspan font-family="Helvetica Neue" font-size="10" fill="black" x="6545875e-19" y="10" xml:space="preserve">1</tspan>
        </text>
      </g>
      <g id="Line_65">
        <path d="M 952.0542 278.87977 C 913.2014 304.00785 850.9499 321.83832 871.5344 361.3125 C 892.9084 402.3009 917.7695 341.60305 965.8611 385.87786 C 1013.9528 430.15267 923.4427 404.96183 944.0534 444.6565 C 964.6641 484.35115 918.8626 481.2977 940.2366 509.542 C 961.6107 537.78626 1031.8397 531.6794 1058.1555 529.3893" stroke="#005493" stroke-linecap="round" stroke-linejoin="round" stroke-width="6"/>
      </g>
      <g id="Graphic_64">
        <title>path15936</title>
        <path d="M 1243.8986 282.8561 L 1229.0997 269.79456 L 1225.5457 289.1755" stroke="#bc1e47" stroke-linecap="round" stroke-linejoin="round" stroke-width="6"/>
      </g>
      <g id="Graphic_63">
        <title>path15936</title>
        <path d="M 957.544 390.7042 L 976.376 396.6173 L 971.7398 377.4664" stroke="#005493" stroke-linecap="round" stroke-linejoin="round" stroke-width="6"/>
      </g>
      <g id="Graphic_61">
        <title>path11083</title>
        <path d="M 1060.7851 524.8455 C 1063.2263 526.25603 1064.1173 529.34106 1062.8037 531.8345 C 1061.4901 534.32796 1058.4406 535.34005 1055.8951 534.1274 C 1053.3497 532.9147 1052.2167 529.91 1053.3283 527.3203 C 1054.4399 524.7306 1057.3995 523.4801 1060.0331 524.48724" fill="black"/>
      </g>
      <g id="Graphic_60">
        <text transform="translate(1057.9018 534.55524)" fill="black">
          <tspan font-family="Helvetica Neue" font-size="16" fill="black" x="14566126e-20" y="15" xml:space="preserve">z</tspan>
        </text>
      </g>
      <g id="Graphic_59">
        <text transform="translate(1066.1418 543.47943)" fill="black">
          <tspan font-family="Helvetica Neue" font-size="10" fill="black" x="6545875e-19" y="10" xml:space="preserve">2</tspan>
        </text>
      </g>
      <g id="Graphic_54">
        <title>path15936</title>
        <path d="M 1071.7182 341.83322 L 1054.2324 333.5185 L 1056.1215 352.7541" stroke="#bc1e47" stroke-linecap="round" stroke-linejoin="round" stroke-width="6"/>
      </g>
      <g id="Graphic_53">
        <text transform="translate(994.8995 287)" fill="black">
          <tspan font-family="Times" font-size="18.08" fill="black" x="0" y="18" xml:space="preserve">ξ</tspan>
        </text>
      </g>
      <g id="Graphic_52">
        <text transform="translate(1004.2874 300.68875)" fill="black">
          <tspan font-family="Helvetica Neue" font-size="10" fill="black" x="6545875e-19" y="10" xml:space="preserve">1</tspan>
        </text>
      </g>
      <g id="Graphic_51">
        <text transform="translate(1043.3479 402.77054)" fill="black">
          <tspan font-family="Times" font-size="18.08" fill="black" x="0" y="18" xml:space="preserve">ξ</tspan>
        </text>
      </g>
      <g id="Graphic_50">
        <text transform="translate(1052.8493 420.5)" fill="black">
          <tspan font-family="Helvetica Neue" font-size="10" fill="black" x="6545875e-19" y="10" xml:space="preserve">2</tspan>
        </text>
      </g>
      <g id="Line_73">
        <line x1="959.5912" y1="280.13707" x2="993.19" y2="324.39887" stroke="#bc1e47" stroke-linecap="round" stroke-linejoin="round" stroke-width="6"/>
      </g>
      <g id="Graphic_74">
        <title>path15936</title>
        <path d="M 964.2873 303.17855 L 982.656 309.3003 L 978.4368 290.4383" stroke="#bc1e47" stroke-linecap="round" stroke-linejoin="round" stroke-width="6"/>
      </g>
      <g id="Line_75">
        <line x1="1032.2314" y1="403.2601" x2="1057.0987" y2="524.2474" stroke="#bc1e47" stroke-linecap="round" stroke-linejoin="round" stroke-width="6"/>
      </g>
      <g id="Graphic_76">
        <title>path15936</title>
        <path d="M 1055.5533 464.4587 L 1041.0368 451.64636 L 1037.5506 470.6575" stroke="#bc1e47" stroke-linecap="round" stroke-linejoin="round" stroke-width="6"/>
      </g>
      <g id="Graphic_62">
        <title>path11083</title>
        <path d="M 959.0456 271.41037 C 961.4867 272.82092 962.3778 275.90595 961.0642 278.3994 C 959.7506 280.89284 956.7011 281.90494 954.1556 280.69226 C 951.6102 279.4796 950.4772 276.47487 951.5888 273.8852 C 952.7004 271.2955 955.66 270.04496 958.2936 271.05213" fill="black"/>
      </g>
      <g id="Graphic_55">
        <title>path11083</title>
        <path d="M 1035.7236 399.27848 C 1038.1648 400.68903 1039.0559 403.77406 1037.7423 406.2675 C 1036.4287 408.76095 1033.3791 409.77305 1030.8337 408.56037 C 1028.2883 407.3477 1027.1552 404.343 1028.2668 401.7533 C 1029.3785 399.1636 1032.338 397.91307 1034.9717 398.92024" fill="black"/>
      </g>
      <g id="Line_77">
        <line x1="468.5781" y1="280.14696" x2="500.99154" y2="323.12583" stroke="black" stroke-linecap="round" stroke-linejoin="round" stroke-width="1"/>
      </g>
      <g id="Graphic_78">
        <title>path15936</title>
        <path d="M 477.1117 300.7017 L 487.1882 304.2565 L 485.0418 293.8082" stroke="black" stroke-linecap="round" stroke-linejoin="round" stroke-width="1"/>
      </g>
      <g id="Graphic_79">
        <title>path15936</title>
        <path d="M 558.73105 465.42545 L 550.97155 458.0795 L 548.6827 468.49754" stroke="black" stroke-linecap="round" stroke-linejoin="round" stroke-width="1"/>
      </g>
      <g id="Line_80">
        <line x1="566.02067" y1="524.2641" x2="540.3088" y2="408.14575" stroke="black" stroke-linecap="round" stroke-linejoin="round" stroke-width="1"/>
      </g>
      <g id="Graphic_81">
        <text transform="translate(460.3884 290.91117)" fill="black">
          <tspan font-family="Times" font-size="18.0799999237061" fill="black" x="0" y="18" xml:space="preserve">δ</tspan>
        </text>
      </g>
      <g id="Graphic_82">
        <text transform="translate(469.5413 303.1942)" fill="black">
          <tspan font-family="Helvetica Neue" font-size="10" fill="black" x="6545875e-19" y="10" xml:space="preserve">1</tspan>
        </text>
      </g>
      <g id="Graphic_84">
        <text transform="translate(563.73105 453.62375)" fill="black">
          <tspan font-family="Times" font-size="18.08" fill="black" x="0" y="18" xml:space="preserve">δ</tspan>
        </text>
      </g>
      <g id="Graphic_83">
        <text transform="translate(572.88396 465.9068)" fill="black">
          <tspan font-family="Helvetica Neue" font-size="10" fill="black" x="6545875e-19" y="10" xml:space="preserve">2</tspan>
        </text>
      </g>
      <g id="Graphic_86">
        <text transform="translate(943.9473 297.0527)" fill="black">
          <tspan font-family="Times" font-size="18.08" fill="black" x="0" y="18" xml:space="preserve">δ</tspan>
        </text>
      </g>
      <g id="Graphic_85">
        <text transform="translate(953.1002 309.33574)" fill="black">
          <tspan font-family="Helvetica Neue" font-size="10" fill="black" x="6545875e-19" y="10" xml:space="preserve">1</tspan>
        </text>
      </g>
      <g id="Graphic_88">
        <text transform="translate(1060.024 442.78)" fill="black">
          <tspan font-family="Times" font-size="18.08" fill="black" x="0" y="18" xml:space="preserve">δ</tspan>
        </text>
      </g>
      <g id="Graphic_87">
        <text transform="translate(1069.1769 455.06304)" fill="black">
          <tspan font-family="Helvetica Neue" font-size="10" fill="black" x="6545875e-19" y="10" xml:space="preserve">2</tspan>
        </text>
      </g>
      <g id="Graphic_89">
        <text transform="translate(638.6606 199.32645)" fill="black">
          <tspan font-family="Times" font-size="18.0799999237061" fill="black" x="0" y="18" xml:space="preserve">γ</tspan>
        </text>
      </g>
      <g id="Graphic_90">
        <text transform="translate(414.9523 405.69757)" fill="black">
          <tspan font-family="Times" font-size="18.08" fill="black" x="0" y="18" xml:space="preserve">γ</tspan>
        </text>
      </g>
      <g id="Graphic_91">
        <text transform="translate(423.3471 421.32645)" fill="black">
          <tspan font-family="Helvetica Neue" font-size="10" fill="black" x="6545875e-19" y="10" xml:space="preserve">1</tspan>
        </text>
      </g>
      <g id="Graphic_92">
        <text transform="translate(648 212.73393)" fill="black">
          <tspan font-family="Helvetica Neue" font-size="10" fill="black" x="6545875e-19" y="10" xml:space="preserve">2</tspan>
        </text>
      </g>
      <g id="Graphic_94">
        <text transform="translate(911 396.0569)" fill="black">
          <tspan font-family="Times" font-size="18.08" fill="black" x="0" y="18" xml:space="preserve">γ</tspan>
        </text>
      </g>
      <g id="Graphic_93">
        <text transform="translate(919.3948 411.6858)" fill="black">
          <tspan font-family="Helvetica Neue" font-size="10" fill="black" x="6545875e-19" y="10" xml:space="preserve">1</tspan>
        </text>
      </g>
      <g id="Graphic_96">
        <text transform="translate(1122.96 196.63896)" fill="black">
          <tspan font-family="Times" font-size="18.08" fill="black" x="0" y="18" xml:space="preserve">γ</tspan>
        </text>
      </g>
      <g id="Graphic_95">
        <text transform="translate(1132.2994 210.04645)" fill="black">
          <tspan font-family="Helvetica Neue" font-size="10" fill="black" x="6545875e-19" y="10" xml:space="preserve">2</tspan>
        </text>
      </g>
      <g id="Graphic_97">
        <text transform="translate(465.1623 336.6888)" fill="black">
          <tspan font-family="Times" font-size="18.0799999237061" fill="black" x="0" y="18" xml:space="preserve">C</tspan>
        </text>
      </g>
      <g id="Group_100">
        <g id="Graphic_98">
          <text transform="translate(476.9924 347.4088)" fill="black">
            <tspan font-family="Helvetica Neue" font-size="10" fill="black" x="6545875e-19" y="10" xml:space="preserve">1</tspan>
          </text>
        </g>
        <g id="Graphic_99">
          <text transform="translate(465.1623 337.4703)" fill="black">
            <tspan font-family="Times" font-size="18.08" fill="black" x="0" y="18" xml:space="preserve">C</tspan>
          </text>
        </g>
      </g>
      <g id="Group_108">
        <g id="Graphic_106">
          <text transform="translate(597.15054 347.04444)" fill="black">
            <tspan font-family="Helvetica Neue" font-size="10" fill="black" x="6545875e-19" y="10" xml:space="preserve">2</tspan>
          </text>
        </g>
        <g id="Graphic_105">
          <text transform="translate(585.3204 337.10596)" fill="black">
            <tspan font-family="Times" font-size="18.08" fill="black" x="0" y="18" xml:space="preserve">C</tspan>
          </text>
        </g>
      </g>
      <g id="Group_109">
        <g id="Graphic_111">
          <text transform="translate(1095.5917 342.97683)" fill="black">
            <tspan font-family="Helvetica Neue" font-size="10" fill="black" x="6545875e-19" y="10" xml:space="preserve">2</tspan>
          </text>
        </g>
        <g id="Graphic_110">
          <text transform="translate(1083.7616 333.03835)" fill="black">
            <tspan font-family="Times" font-size="18.08" fill="black" x="0" y="18" xml:space="preserve">C</tspan>
          </text>
        </g>
      </g>
      <g id="Graphic_114">
        <text transform="translate(669.5307 199.43848)" fill="black">
          <tspan font-family="Helvetica Neue" font-size="10" fill="black" x="6545875e-19" y="10" xml:space="preserve">1</tspan>
        </text>
      </g>
      <g id="Graphic_56">
        <title>path11083</title>
        <path d="M 995.786 321.9478 C 998.2272 323.35837 999.1183 326.4434 997.8047 328.93685 C 996.4911 331.4303 993.4416 332.4424 990.8961 331.2297 C 988.3507 330.01704 987.2176 327.01232 988.3293 324.42264 C 989.4409 321.83296 992.4005 320.5824 995.0341 321.58958" fill="black"/>
      </g>
      <g id="Line_116">
        <line x1="1033.0214" y1="404.0501" x2="1058.9455" y2="530.1793" stroke="#bc1e47" stroke-linecap="round" stroke-linejoin="round" stroke-width="6"/>
      </g>
      <g id="Graphic_115">
        <title>path15936</title>
        <path d="M 1056.8354 467.643 L 1042.3189 454.83066 L 1038.8327 473.8418" stroke="#bc1e47" stroke-linecap="round" stroke-linejoin="round" stroke-width="6"/>
      </g>
    </g>
  </g>
</svg>
